<?xml version="1.0" encoding="UTF-8"?>
<svg id="katman_1" xmlns="http://www.w3.org/2000/svg" version="1.1" viewBox="0 0 869.39 121.56">
  <!-- Generator: Adobe Illustrator 30.2.1, SVG Export Plug-In . SVG Version: 2.1.1 Build 1)  -->
  <defs>
    <style>
      .st0 {
        fill: #070917;
        stroke: #fff;
        stroke-miterlimit: 10;
      }

      .st1 {
        fill: #fff;
      }
    </style>
  </defs>
  <path class="st1" d="M93.31,7.87c-9.91,0-19.03,2.4-26.78,7.16-5.8-2.53-12.41-3.92-19.71-3.92C19,11.12,0,33.26,0,60.68s20.96,49.76,48.98,49.76c7.13,0,13.83-1.32,19.85-3.95,7.42,4.6,16.47,7.2,26.78,7.2,29.64,0,49.89-23.59,49.89-52.81S123.16,7.87,93.31,7.87ZM93.31,20.18c21.5,0,37.36,15.24,39.45,35.9h-40.33c-.42-13.69-5.53-25.4-14.2-33.43,4.69-1.69,9.79-2.47,15.08-2.47ZM46.82,22.68c19.2,0,33.11,12.93,33.5,32.72H12.34c1.76-18.42,14.69-32.72,34.48-32.72ZM11.95,65.19h35.06c.28,12.92,4.45,24.22,11.7,32.66-3.12.7-6.39,1.04-9.73,1.04-20.18,0-35.07-14.3-37.03-33.7ZM95.61,101.38c-20.45,0-35.27-13.78-35.69-34.86h72.43c-1.88,19.62-15.66,34.86-36.74,34.86Z"/>
  <line class="st0" x1="178.38" y1="11.12" x2="178.38" y2="110.45"/>
  <g>
    <path class="st1" d="M211.26,52.91c0-15.73,10.9-28.42,26.85-28.42s26.17,11.35,26.17,26.85v4.16h-46.17c1.12,11.12,9.66,19.32,21.23,19.32,7.41,0,14.15-2.81,18.09-9.77l5.39,2.92c-4.94,8.99-13.48,13.48-23.48,13.48-16.06,0-28.08-12.24-28.08-28.53ZM257.32,49.88c-.22-11.35-8.2-18.76-19.21-18.76s-18.76,8.2-19.77,18.76h38.98Z"/>
    <path class="st1" d="M284.73,80.32v-48.19h-10.78v-6.29h10.78v-8.2c0-10.22,6.74-17.64,18.54-17.64,3.59,0,6.85.79,9.55,2.13v6.96c-2.47-1.57-5.62-2.58-8.99-2.58-7.53,0-12.13,3.15-12.13,11.23v8.09h20.78v6.29h-20.78v48.19h-6.96Z"/>
    <path class="st1" d="M317.86,52.91c0-15.73,10.9-28.42,26.85-28.42s26.17,11.35,26.17,26.85v4.16h-46.17c1.12,11.12,9.66,19.32,21.23,19.32,7.41,0,14.15-2.81,18.09-9.77l5.39,2.92c-4.94,8.99-13.48,13.48-23.48,13.48-16.06,0-28.08-12.24-28.08-28.53ZM363.92,49.88c-.22-11.35-8.2-18.76-19.21-18.76s-18.76,8.2-19.77,18.76h38.98Z"/>
    <path class="st1" d="M387.84,80.32V.79h6.96v34.6c4.04-6.4,11.68-10.78,20.56-10.78,15.5,0,24.71,10.9,24.71,27.18v28.53h-6.96v-27.97c0-11.35-6.29-21.12-18.65-21.12-11.35,0-19.66,9.21-19.66,21.68v27.41h-6.96Z"/>
    <path class="st1" d="M454.11,52.91c0-15.5,12.25-28.31,28.53-28.31s28.65,12.36,28.65,28.31v27.41h-6.63v-12.69c-4.16,8.2-12.58,13.82-22.92,13.82-15.73,0-27.63-12.81-27.63-28.53ZM504.33,53.02c0-11.91-9.55-21.79-21.68-21.79s-21.57,9.89-21.57,21.79,9.55,21.79,21.57,21.79,21.68-9.88,21.68-21.79Z"/>
    <path class="st1" d="M536.22,53.02v27.3h-6.96v-27.86c0-15.73,9.55-27.86,25.95-27.86s26.51,12.02,26.51,27.75v27.97h-6.96v-27.19c0-11.68-6.85-21.91-19.55-21.91s-18.99,10.22-18.99,21.79Z"/>
    <path class="st1" d="M598.56,93.13l5.84-3.26c3.82,6.85,11.12,10.11,18.87,10.11,13.48,0,20.11-10.33,20-23.59v-7.64c-3.37,7.53-10,12.47-19.55,12.47-15.95,0-24.26-10.78-24.26-26.51v-28.87h6.96v28.2c0,12.24,6.18,20.56,17.97,20.56s18.87-9.77,18.87-21.79v-26.96h6.96v50.55c0,17.64-9.32,30.22-26.85,30.22-10.33,0-19.88-4.38-24.83-13.48Z"/>
    <path class="st1" d="M678.54,25.84v54.48h-6.96V25.84h6.96Z"/>
    <path class="st1" d="M707.19.79v79.53h-6.96V.79h6.96Z"/>
    <path class="st1" d="M723.47,53.13c0-16.06,12.13-28.53,28.2-28.53,9.21,0,17.3,4.72,21.91,11.68l.11-35.5h6.96v52.35c0,15.95-12.58,28.42-28.65,28.42s-28.53-12.81-28.53-28.42ZM773.69,53.13c0-11.91-9.55-21.91-21.68-21.91s-21.57,10-21.57,21.91,9.55,21.79,21.57,21.79,21.68-9.89,21.68-21.79Z"/>
    <path class="st1" d="M807.83,25.84v54.48h-6.96V25.84h6.96Z"/>
    <path class="st1" d="M834.11,80.32c-6.18,0-9.55-4.27-9.55-8.65,0-3.82,1.46-6.07,4.49-8.54l31.34-24.6c1.35-1.01,2.02-2.13,2.02-3.48,0-1.91-1.57-2.92-3.71-2.92h-33.36v-6.29h34.49c6.18,0,9.55,4.27,9.55,8.65,0,3.82-1.46,6.07-4.49,8.54l-31.34,24.6c-1.35,1.01-2.02,2.13-2.02,3.48,0,1.91,1.57,2.92,3.71,2.92h34.04v6.29h-35.16Z"/>
    <path class="st1" d="M217.38,115.26h-6.11v-18.04h6.25c5.79,0,9.67,3.58,9.67,8.94,0,5.66-4.23,9.1-9.8,9.1ZM217.51,99.75h-3.5v13.01h3.37c3.93,0,6.97-2.48,6.97-6.6,0-3.82-2.8-6.41-6.84-6.41Z"/>
    <path class="st1" d="M230.57,97.7c0-.97.78-1.78,1.75-1.78s1.72.81,1.72,1.78-.75,1.75-1.72,1.75-1.75-.78-1.75-1.75ZM233.67,102.06v13.2h-2.67v-13.2h2.67Z"/>
    <path class="st1" d="M241.21,102.06v14.3c0,3.07-1.89,5.2-5.28,5.2l-.11-2.53c1.78,0,2.72-1.13,2.72-2.75v-14.22h2.67ZM238.14,97.7c0-.97.78-1.78,1.75-1.78s1.72.81,1.72,1.78-.75,1.75-1.72,1.75-1.75-.78-1.75-1.75Z"/>
    <path class="st1" d="M245.14,97.7c0-.97.78-1.78,1.75-1.78s1.72.81,1.72,1.78-.75,1.75-1.72,1.75-1.75-.78-1.75-1.75ZM248.24,102.06v13.2h-2.67v-13.2h2.67Z"/>
    <path class="st1" d="M253.54,110.52v-6.14h-2.61v-2.32h2.61v-3.42h2.67v3.42h5.06v2.32h-5.06v6.06c0,1.72,1.02,2.75,2.61,2.75.86,0,1.8-.32,2.45-.78v2.45c-.67.46-1.72.75-2.69.75-3.29,0-5.04-2.07-5.04-5.09Z"/>
    <path class="st1" d="M263.59,108.63c0-3.77,3.02-6.89,7.03-6.89s7.03,2.96,7.03,6.89v6.62h-2.53v-2.32c-1,1.62-2.75,2.64-4.9,2.64-3.82,0-6.62-3.12-6.62-6.95ZM274.98,108.66c0-2.42-1.89-4.42-4.36-4.42s-4.36,1.99-4.36,4.42,1.91,4.39,4.36,4.39,4.36-1.99,4.36-4.39Z"/>
    <path class="st1" d="M284.67,96v19.26h-2.67v-19.26h2.67Z"/>
    <path class="st1" d="M297.49,115.26v-18.04h5.74c4.85,0,8,2.18,8,6.38s-3.21,6.46-7.86,6.46h-3.12v5.2h-2.75ZM300.24,99.75v7.76h3.07c2.96,0,5.09-1.16,5.09-3.9s-2.05-3.85-5.09-3.85h-3.07Z"/>
    <path class="st1" d="M313.17,108.63c0-3.77,3.02-6.89,7.03-6.89s7.03,2.96,7.03,6.89v6.62h-2.53v-2.32c-1,1.62-2.75,2.64-4.9,2.64-3.82,0-6.62-3.12-6.62-6.95ZM324.56,108.66c0-2.42-1.89-4.42-4.36-4.42s-4.36,1.99-4.36,4.42,1.91,4.39,4.36,4.39,4.36-1.99,4.36-4.39Z"/>
    <path class="st1" d="M333.18,115.26c-1.83,0-2.8-1.13-2.8-2.37,0-1.08.4-1.78,1.35-2.42l6.95-5.12c.19-.16.3-.32.3-.54,0-.3-.24-.43-.57-.43h-7.73v-2.32h8.27c1.8,0,2.77,1.16,2.77,2.37,0,1.08-.4,1.78-1.32,2.45l-6.95,5.12c-.21.13-.32.32-.32.54,0,.3.24.43.54.43h7.97v2.29h-8.46Z"/>
    <path class="st1" d="M343.89,108.63c0-3.77,3.02-6.89,7.03-6.89s7.03,2.96,7.03,6.89v6.62h-2.53v-2.32c-1,1.62-2.75,2.64-4.9,2.64-3.82,0-6.62-3.12-6.62-6.95ZM355.29,108.66c0-2.42-1.89-4.42-4.36-4.42s-4.36,1.99-4.36,4.42,1.91,4.39,4.36,4.39,4.36-1.99,4.36-4.39Z"/>
    <path class="st1" d="M361.77,115.26v-7.86c0-3.21,1.83-5.6,5.28-5.6.83,0,1.7.16,2.37.48v2.64c-.65-.38-1.4-.57-2.13-.57-1.78,0-2.86,1.21-2.86,3.15v7.76h-2.67Z"/>
    <path class="st1" d="M374.19,96v19.26h-2.67v-19.26h2.67Z"/>
    <path class="st1" d="M377.69,108.63c0-3.77,3.02-6.89,7.03-6.89s7.03,2.96,7.03,6.89v6.62h-2.53v-2.32c-1,1.62-2.75,2.64-4.9,2.64-3.82,0-6.62-3.12-6.62-6.95ZM389.08,108.66c0-2.42-1.89-4.42-4.36-4.42s-4.36,1.99-4.36,4.42,1.91,4.39,4.36,4.39,4.36-1.99,4.36-4.39Z"/>
    <path class="st1" d="M418.09,108.31v6.95h-2.67v-6.52c0-2.4-1.18-4.5-3.66-4.5s-3.61,2.02-3.61,4.44v6.57h-2.67v-6.57c0-2.42-1.21-4.44-3.66-4.44s-3.58,2.1-3.58,4.5v6.52h-2.67v-6.92c0-3.69,2.1-6.65,6.06-6.65,2.64,0,4.55,1.35,5.22,3.39.73-2.05,2.59-3.39,5.09-3.39,3.99,0,6.14,2.96,6.14,6.62Z"/>
    <path class="st1" d="M421.07,108.63c0-3.77,3.02-6.89,7.03-6.89s7.03,2.96,7.03,6.89v6.62h-2.53v-2.32c-1,1.62-2.75,2.64-4.9,2.64-3.82,0-6.62-3.12-6.62-6.95ZM432.47,108.66c0-2.42-1.89-4.42-4.36-4.42s-4.36,1.99-4.36,4.42,1.91,4.39,4.36,4.39,4.36-1.99,4.36-4.39Z"/>
    <path class="st1" d="M446.95,107.42v-10.21h2.75v10.13c0,3.58,1.51,5.58,4.69,5.58s4.69-1.99,4.69-5.58v-10.13h2.75v10.21c0,5.01-2.37,8.08-7.43,8.08s-7.43-3.07-7.43-8.08Z"/>
    <path class="st1" d="M468.09,115.26c-1.83,0-2.8-1.13-2.8-2.37,0-1.08.4-1.78,1.35-2.42l6.95-5.12c.19-.16.3-.32.3-.54,0-.3-.24-.43-.57-.43h-7.73v-2.32h8.27c1.8,0,2.77,1.16,2.77,2.37,0,1.08-.4,1.78-1.32,2.45l-6.95,5.12c-.21.13-.32.32-.32.54,0,.3.24.43.54.43h7.97v2.29h-8.46Z"/>
    <path class="st1" d="M502.29,108.31v6.95h-2.67v-6.52c0-2.4-1.18-4.5-3.66-4.5s-3.61,2.02-3.61,4.44v6.57h-2.67v-6.57c0-2.42-1.21-4.44-3.66-4.44s-3.58,2.1-3.58,4.5v6.52h-2.67v-6.92c0-3.69,2.1-6.65,6.06-6.65,2.64,0,4.55,1.35,5.22,3.39.73-2.05,2.59-3.39,5.09-3.39,3.99,0,6.14,2.96,6.14,6.62Z"/>
    <path class="st1" d="M505.28,108.63c0-3.77,3.02-6.89,7.03-6.89s7.03,2.96,7.03,6.89v6.62h-2.53v-2.32c-1,1.62-2.75,2.64-4.9,2.64-3.82,0-6.62-3.12-6.62-6.95ZM516.68,108.66c0-2.42-1.89-4.42-4.36-4.42s-4.36,1.99-4.36,4.42,1.91,4.39,4.36,4.39,4.36-1.99,4.36-4.39Z"/>
    <path class="st1" d="M525.83,108.88v6.38h-2.67v-6.65c0-3.85,2.29-6.87,6.54-6.87s6.65,3.02,6.65,6.84v6.68h-2.67v-6.36c0-2.48-1.35-4.61-3.99-4.61s-3.88,2.13-3.88,4.58Z"/>
    <path class="st1" d="M543.39,102.06v13.2h-2.67v-13.2h2.67Z"/>
  </g>
</svg>