<?xml version="1.0" encoding="UTF-8"?>
<svg id="katman_1" xmlns="http://www.w3.org/2000/svg" version="1.1" viewBox="0 0 256 59">
  <!-- Generator: Adobe Illustrator 30.0.0, SVG Export Plug-In . SVG Version: 2.1.1 Build 123)  -->
  <defs>
    <style>
      .st0 {
        fill: #fff;
      }
    </style>
  </defs>
  <path class="st0" d="M51.38,4.79c-.57-.61-1.47-.73-2.3-.73s-1.39.12-1.96.73c-.57.59-.85,1.32-.85,2.15l-.17,16.44c-.52-.68-1.11-1.28-1.75-1.84-1.02-.87-2.17-1.59-3.41-2.13-1.23-.55-2.53-.97-3.9-1.26s-2.7-.43-4-.43c-2.6,0-5.08.45-7.35,1.33-2.27.88-4.3,2.18-5.98,3.81-1.7,1.65-3.05,3.67-4.02,6.03-.97,2.34-1.46,4.99-1.46,7.85s.49,5.58,1.46,7.92c.97,2.36,2.32,4.38,4.02,6.06,1.7,1.66,3.71,2.98,5.98,3.9s4.75,1.37,7.35,1.37c1.3,0,2.65-.16,4.02-.47,1.35-.31,2.67-.76,3.88-1.33,1.23-.57,2.37-1.32,3.41-2.22.64-.57,1.23-1.2,1.75-1.87v2.44c0,.83.29,1.94.85,2.53.57.61,1.28.9,2.13.9s1.56-.31,2.13-.9.85-1.7.85-2.53l.17-45.63c0-.83-.29-1.56-.85-2.15v.02ZM45.05,42.45c-.69,1.65-1.63,3.05-2.81,4.14-1.18,1.11-2.58,1.96-4.14,2.51-1.58.57-3.29.85-5.08.85s-3.47-.33-5.01-.97c-1.54-.64-2.93-1.56-4.07-2.74-1.16-1.18-2.06-2.6-2.7-4.19-.64-1.59-.97-3.4-.97-5.32s.33-3.79.97-5.41c.64-1.59,1.54-2.96,2.7-4.07,1.14-1.11,2.53-1.98,4.07-2.6,1.56-.62,3.24-.94,5.03-.94,1.52,0,3.08.28,4.64.81s2.98,1.37,4.23,2.44,2.27,2.44,3.03,4.07,1.14,3.52,1.14,5.65-.35,4.05-1.04,5.7v.05Z"/>
  <path class="st0" d="M90.92,38.81c.59-.52.88-1.21.88-2.06,0-2.86-.45-5.49-1.33-7.83-.88-2.36-2.15-4.38-3.74-6.03-1.59-1.65-3.52-2.93-5.72-3.83-2.2-.88-4.63-1.33-7.23-1.33s-5.06.45-7.31,1.33c-2.25.88-4.25,2.18-5.91,3.81-1.68,1.65-3,3.67-3.93,6.03-.94,2.34-1.42,4.99-1.42,7.85s.47,5.58,1.42,7.92c.94,2.36,2.27,4.38,3.93,6.06s3.66,2.98,5.91,3.9c2.24.92,4.7,1.37,7.31,1.37,3.12,0,6.03-.66,8.65-1.98,2.62-1.3,4.78-3.19,6.46-5.6.49-.71.62-1.49.45-2.27s-.62-1.4-1.33-1.89c-.75-.49-1.51-.61-2.29-.31-.71.26-1.33.69-1.84,1.32-1.25,1.44-2.65,2.6-4.18,3.47-1.51.85-3.5,1.28-5.93,1.28-1.63,0-3.17-.26-4.57-.78-1.4-.52-2.67-1.25-3.74-2.18-1.07-.94-1.99-2.1-2.74-3.45-.66-1.21-1.11-2.58-1.33-4.05h27.59c.73,0,1.39-.26,1.96-.76l-.02.02ZM61.41,33.92c.55-3.07,1.92-5.53,4.05-7.35,2.25-1.92,5.06-2.89,8.3-2.89s5.89.97,7.99,2.88c1.99,1.82,3.29,4.3,3.85,7.36h-24.21.02Z"/>
  <path class="st0" d="M132.06,18.59h0c-.57-.61-1.28-.9-2.13-.9s-1.56.31-2.13.9c-.57.59-.85,1.32-.85,2.15v2.65c-.52-.68-1.11-1.28-1.75-1.84-1.02-.87-2.17-1.59-3.41-2.13-1.23-.55-2.53-.97-3.9-1.26-1.35-.29-2.7-.43-4-.43-2.6,0-5.08.45-7.35,1.33-2.27.88-4.28,2.18-5.98,3.81-1.7,1.65-3.05,3.67-4.02,6.03-.97,2.34-1.46,4.99-1.46,7.85s.49,5.58,1.46,7.92c.97,2.36,2.32,4.38,4.02,6.06,1.7,1.66,3.71,2.98,5.98,3.9s4.75,1.37,7.35,1.37c1.3,0,2.65-.16,4.02-.47,1.35-.31,2.67-.76,3.88-1.33,1.23-.57,2.37-1.32,3.41-2.22.64-.57,1.23-1.2,1.75-1.87v2.44c0,.83.29,1.94.85,2.53.57.61,1.28.9,2.13.9s1.56-.31,2.13-.9.85-1.7.85-2.53v-31.83c0-.83-.29-1.56-.85-2.15v.02ZM125.91,42.45c-.69,1.65-1.63,3.05-2.81,4.14-1.18,1.11-2.58,1.96-4.14,2.51-1.58.57-3.29.85-5.08.85s-3.47-.33-5.01-.97c-1.54-.64-2.93-1.56-4.07-2.74-1.16-1.18-2.06-2.6-2.7-4.19-.64-1.59-.97-3.4-.97-5.32s.33-3.79.97-5.41c.64-1.59,1.54-2.96,2.7-4.07,1.14-1.11,2.53-1.98,4.07-2.6,1.56-.62,3.24-.94,5.03-.94,1.52,0,3.08.28,4.64.81s2.98,1.37,4.23,2.44,2.27,2.44,3.03,4.07,1.14,3.52,1.14,5.65-.35,4.05-1.04,5.7v.05Z"/>
  <path class="st0" d="M7.9,17.67c-.85,0-1.56.31-2.13.9-.57.59-.85,1.32-.85,2.15v32.23c0,.83.29,1.56.85,2.15.57.61,1.28.9,2.13.9s1.56-.31,2.13-.9c.57-.59.85-1.32.85-2.15V20.72c0-.83-.29-1.56-.85-2.15-.57-.61-1.28-.9-2.13-.9Z"/>
  <path class="st0" d="M7.87,13.11c1.63,0,2.96-1.33,2.96-2.96v-3.14c0-1.63-1.33-2.96-2.96-2.96s-2.96,1.33-2.96,2.96v3.14c0,1.63,1.33,2.96,2.96,2.96Z"/>
  <path class="st0" d="M153.91,34.17l-4.9-1.14c-.61-.16-1.26-.35-1.96-.61-.66-.24-1.25-.57-1.73-.99-.49-.42-.87-.94-1.14-1.58-.26-.61-.31-1.39-.12-2.32.19-1.14.85-2.1,1.99-2.84,1.18-.76,2.6-1.16,4.25-1.16,1.4,0,2.53.23,3.36.68.81.45,1.49,1.13,2.01,2.03.38.64.8,1.2,1.26,1.63.55.52,1.35.64,2.39.33.83-.24,1.46-.73,1.84-1.44.4-.73.45-1.51.14-2.29-.9-2.39-2.41-4.14-4.44-5.2-2.01-1.02-4.21-1.54-6.58-1.54-1.52,0-2.98.21-4.31.64-1.35.42-2.58,1.02-3.66,1.78-1.09.78-2.01,1.72-2.72,2.81-.73,1.09-1.2,2.34-1.42,3.69-.26,2.17-.12,3.99.42,5.42.54,1.44,1.3,2.63,2.27,3.55.95.9,2.04,1.61,3.26,2.08,1.18.47,2.34.83,3.48,1.09l4.99,1.14c1.78.43,3.03,1.13,3.74,2.06.71.94,1.06,1.96,1.06,3.03,0,1.56-.62,2.79-1.89,3.74-1.3.99-3.07,1.49-5.25,1.49-2.34,0-4.09-.45-5.16-1.32-1.11-.88-1.89-1.91-2.32-3-.29-.75-.71-1.33-1.25-1.77-.59-.47-1.33-.61-2.18-.43-.78.17-1.39.61-1.78,1.28-.4.68-.47,1.44-.23,2.29.42,1.39,1.07,2.62,1.92,3.67s1.84,1.96,2.95,2.7,2.32,1.32,3.6,1.7c1.3.4,2.63.59,4,.59,1.87,0,3.67-.26,5.32-.8,1.65-.52,3.1-1.26,4.33-2.22,1.23-.95,2.2-2.13,2.89-3.48.69-1.37,1.04-2.86,1.04-4.47,0-2.55-.69-4.8-2.08-6.71-1.39-1.92-3.85-3.33-7.33-4.16l-.05.02Z"/>
  <path class="st0" d="M203.37,28.9c-1.02-2.36-2.41-4.37-4.12-6.01s-3.78-2.93-6.1-3.81c-2.32-.88-4.82-1.33-7.42-1.33s-5.09.45-7.42,1.33c-2.32.88-4.38,2.17-6.1,3.81-1.73,1.65-3.12,3.67-4.14,6.01-1.02,2.36-1.52,4.99-1.52,7.85s.52,5.58,1.52,7.94c1.02,2.34,2.41,4.38,4.12,6.05,1.73,1.68,3.78,2.98,6.1,3.9,2.32.92,4.82,1.37,7.42,1.37s5.09-.47,7.42-1.37c2.32-.92,4.37-2.22,6.1-3.9,1.72-1.66,3.12-3.71,4.12-6.05,1.02-2.36,1.54-5.03,1.54-7.94s-.52-5.51-1.54-7.85h.02ZM197.91,42.26c-.69,1.63-1.65,3.02-2.86,4.14-1.21,1.13-2.63,2.03-4.23,2.67s-3.31.97-5.09.97-3.48-.33-5.09-.97c-1.61-.64-3.03-1.54-4.23-2.67s-2.17-2.53-2.84-4.14c-.69-1.63-1.04-3.48-1.04-5.51s.35-3.81,1.04-5.42c.69-1.63,1.65-3,2.84-4.11,1.21-1.11,2.63-1.98,4.23-2.6,1.61-.62,3.33-.94,5.09-.94s3.5.31,5.09.94c1.61.62,3.03,1.49,4.23,2.6s2.17,2.48,2.84,4.11c.69,1.63,1.04,3.45,1.04,5.42s-.35,3.88-1.04,5.51h.02Z"/>
  <path class="st0" d="M250.26,18.45h0c-.54-.52-1.21-.78-1.99-.78h-5.16V7.05c0-.83-.29-1.56-.85-2.15-.57-.61-1.28-.9-2.13-.9s-1.56.31-2.13.9-.85,1.32-.85,2.15v10.62h-4.09c-.78,0-1.46.26-1.99.78-.55.52-.83,1.18-.83,1.98s.28,1.46.83,1.98c.54.52,1.21.78,1.99.78h4.09v29.77c0,.83.29,1.56.85,2.15.57.61,1.28.9,2.13.9s1.56-.31,2.13-.9.85-1.32.85-2.15v-29.77h5.16c.78,0,1.46-.26,1.99-.78.55-.52.83-1.18.83-1.98s-.28-1.46-.83-1.98Z"/>
  <path class="st0" d="M219.58,13.09c.45-.87,1.11-1.94,1.99-2.51.87-.55,2.08-.83,3.59-.83h1.7c.83,0,1.52-.26,2.08-.78.55-.52.83-1.21.83-2.06s-.28-1.54-.83-2.1c-.55-.55-1.25-.83-2.1-.83h-1.7c-2.34,0-4.33.4-5.93,1.2s-2.91,1.91-3.9,3.28c-.97,1.37-1.68,3.36-2.08,5.22-.33,1.47-.52,2.34-.57,4h-4.42c-.78,0-1.44.26-1.96.75-.54.5-.8,1.18-.8,2.03s.28,1.52.8,2.03c.52.49,1.18.75,1.96.75h4.4v29.86c0,.83.29,1.42.85,2.01.57.61,1.3.9,2.13.9s1.56-.31,2.13-.9.85-1.18.85-2.01v-29.86h6.1c.78,0,1.44-.24,1.96-.75.54-.5.8-1.18.8-2.03s-.28-1.52-.8-2.03c-.52-.49-1.18-.75-1.96-.75h-6.06c.02-.75.05-.8.12-1.56.09-1.13.36-2.15.83-3.05l-.02.03Z"/>
</svg>