<svg xmlns="http://www.w3.org/2000/svg" id="katman_1" data-name="katman 1" viewBox="0 0 256 108"><defs><style> .cls-1, .cls-2 { fill: #ffffff; stroke-width: 0px; } .cls-2 { fill-rule: evenodd; } </style></defs><path class="cls-2" d="m58.43,45.31h0c1.05,0,1.91.86,1.91,1.91v7.78c0,1.05-.86,1.91-1.91,1.91s-1.91-.86-1.91-1.91v-7.78c0-1.05.86-1.91,1.91-1.91"></path><path class="cls-2" d="m64.03,41.88h0c1.05,0,1.91.86,1.91,1.91v11.21c0,1.05-.86,1.91-1.91,1.91s-1.91-.86-1.91-1.91v-11.21c0-1.05.86-1.91,1.91-1.91"></path><path class="cls-2" d="m69.64,38.32h0c1.05,0,1.91.86,1.91,1.91v14.77c0,1.05-.86,1.91-1.91,1.91s-1.91-.86-1.91-1.91v-14.77c0-1.05.86-1.91,1.91-1.91"></path><path class="cls-2" d="m75.24,34.77h0c1.05,0,1.91.86,1.91,1.91v18.32c0,1.05-.86,1.91-1.91,1.91s-1.91-.86-1.91-1.91v-18.32c0-1.05.86-1.91,1.91-1.91"></path><path class="cls-1" d="m60.34,47.21c0,1.06-.86,1.91-1.91,1.91s-1.92-.85-1.92-1.91.86-1.91,1.91-1.91,1.91.86,1.91,1.91"></path><path class="cls-1" d="m65.94,43.78c0,1.06-.86,1.91-1.91,1.91s-1.91-.85-1.91-1.91.85-1.91,1.91-1.91,1.91.86,1.91,1.91"></path><path class="cls-1" d="m71.55,40.22c0,1.06-.86,1.91-1.91,1.91s-1.91-.85-1.91-1.91.86-1.91,1.91-1.91,1.91.86,1.91,1.91"></path><path class="cls-1" d="m77.16,36.68c0,1.06-.86,1.91-1.91,1.91s-1.91-.85-1.91-1.91.86-1.91,1.91-1.91,1.91.86,1.91,1.91"></path><path class="cls-2" d="m84.34,39.92h0c0-.49-.39-.89-.89-.89h-2.36c-.49,0-.89.39-.89.89v16.1c0,.49.39.89.89.89h2.68c.49,0,.89-.39.89-.89v-7.49c0-2.07.12-1.96.34-2.72s.65-1.38,1.26-1.85c.61-.46,1.3-.7,2.08-.7.6,0,1.12.17,1.54.49.43.33.74.78.93,1.37.18.59.29,1.88.29,3.88v7.03c0,.49.39.89.89.89h2.68c.49,0,.89-.39.89-.89v-9.09c0-1.43-.08-2.52-.25-3.29-.16-.76-.45-1.45-.87-2.06-.42-.61-1.03-1.1-1.85-1.5-.81-.39-1.71-.58-2.7-.58-2.23,0-4.08,1.05-5.55,3.14v-2.73h0Z"></path><path class="cls-2" d="m127.79,43.39c.49,0,.89-.39.89-.89v-2.08c0-.49-.39-.89-.89-.89h-4.12v-4.55c0-.49-.39-.89-.89-.89h-2.55c-.49,0-.89.39-.89.89l-.02,4.56h-2.99c-.49,0-.89.39-.89.89v2.08c0,.49.39.89.89.89h2.99v6.99c0,2.35.39,4.02,1.2,5.02.8,1,2.13,1.5,4.01,1.5h3.15c.49,0,.89-.39.89-.89v-1.93c0-.49-.39-.89-.89-.89h-1.71c-.93,0-1.58-.29-1.96-.86-.24-.38-.36-1.31-.36-2.79v-6.16h4.14Z"></path><path class="cls-2" d="m103.35,46.91h6.67c.02-5.32-6.6-5.28-6.67,0m11.18,1.85h0v.14h0v.03h0v.03h0v.03h0s0,.04-.02.07v.02h0v.03l-.02.02v.02h0v.03h0v.02h0v.03h0v.02l-.02.02h0v.03h0v.02h0v.02h0v.02l-.02.02h0v.03h0v.02h-.02v.02h0s-.03.03-.04.04h0v.02h0v.02h-.02v.02h-.02v.02h-.02v.02h-.02v.02h-.02v.02h-.02v.02h-.02v.02h-.02s0,0,0,0l-.02.02h-.03s-.02.03-.02.03h-.03s-.02,0-.02,0h0s-.02,0-.02,0h0s-.02,0-.02,0h0s-.02,0-.02,0h0s-.02,0-.02,0c0,0-.03.02-.04.03h-10.6c.08,2.9,2.02,4.34,3.79,4.23,1.29-.08,2.5-.82,2.77-2.31,0-.49.39-.89.89-.89h2.7c.49,0,.89.39.89.89-1.11,4.47-4.19,5.66-7.43,5.66-3.97,0-7.66-1.88-8.13-7.58h0c-.61-6.64,3.23-9.92,7.33-10.12,4.2-.19,8.36,2.3,8.46,9.22h-.06l-.03-.03Z"></path><path class="cls-2" d="m141.64,43.23h-3.6c-2.5,0-3.76,1.66-3.76,4.99,0,1.63.34,2.86,1.01,3.71.66.84,1.66,1.26,2.97,1.26h3.38v-9.96h0Zm4.34-2.82c0-.49-.39-.89-.89-.89h-7.23c-1.18,0-2.16.12-2.94.36-.79.24-1.52.61-2.2,1.13-1.92,1.52-2.88,3.92-2.88,7.21,0,2.88.79,5.13,2.38,6.77.66.7,1.42,1.19,2.25,1.49s1.9.45,3.18.45h4c0,1-.15,1.66-.45,1.99s-.92.49-1.87.49h-8.08c-.49,0-.89.39-.89.89v1.94c0,.49.39.89.89.89h8.67c1.32,0,2.34-.13,3.07-.38s1.33-.72,1.8-1.38c.42-.55.72-1.19.92-1.94.19-.75.29-1.62.29-2.6v-16.41h0Z"></path><path class="cls-2" d="m150.6,56.9h0c-.49,0-.89-.39-.89-.89v-1.94c0-.49.39-.89.89-.89h7.88c.41,0,.72-.02.93-.05.77-.09,1.16-.56,1.16-1.43,0-.71-.25-1.2-.76-1.49-.29-.15-.93-.23-1.9-.23h-2.64c-1.02,0-1.8-.08-2.36-.21-.56-.14-1.08-.39-1.55-.76-.57-.45-1.03-1.08-1.38-1.89-.34-.8-.51-1.66-.51-2.56,0-1.74.57-3.13,1.72-4.15.35-.3.82-.53,1.39-.68.58-.15,1.31-.23,2.2-.23h8.41c.49,0,.89.39.89.89v1.94c0,.49-.39.89-.89.89h-6.82c-.9,0-1.45.05-1.68.13-.5.18-.75.64-.75,1.39,0,.6.24,1.07.71,1.41.28.18.98.28,2.11.28h2.57c1.63,0,2.92.39,3.89,1.17,1.05.87,1.59,2.13,1.59,3.79,0,1.24-.32,2.4-.96,3.47-.48.8-1.06,1.34-1.76,1.61-.7.28-1.84.41-3.41.41h-8.1.02Z"></path><path class="cls-2" d="m190.95,56.02h0Zm-19.38-16.5h-2.36c-.49,0-.89.39-.89.89v15.61c0,.49.39.89.89.89h2.57c.49,0,.89-.39.89-.89v-12.79h4.68v12.79c0,.49.39.89.89.89h2.57c.49,0,.89-.39.89-.89v-12.79h2.32c.91,0,1.59.24,2.04.71.24.27.39.56.45.88.07.32.1.91.1,1.76v9.44h0v.24s0,.03,0,.03l.02.03v.02l.02.03v.03l.02.02v.03l.02.02v.03l.02.02v.02l.03.02v.02l.03.02.02.02.02.02.02.02.02.02.02.02.02.02.02.02h0l.02.02.02.02.02.02.02.02.02.02.02.02.02.02.02.02.02.02.02.02.02.02h.02l.02.02h.02l.02.02h.02l.03.02h.02l.03.02h.02l.03.02h.03l.03.02h.07s.03,0,.03,0h.03s.03,0,.03,0h2.66c.49,0,.89-.39.89-.89v-10.18c0-2-.48-3.57-1.43-4.71-.5-.62-1.13-1.04-1.87-1.27-.75-.23-1.86-.34-3.34-.34h-12.74v-.02l-.06-.03Z"></path><path class="cls-1" d="m162.14,69.87c0-1.32.59-1.71,1.53-1.71h.33v-1.33c-.88,0-1.5.39-1.86,1v-.9h-1.29v6.22h1.29v-3.27h0Zm-4.47-3.82c.37,0,.68-.29.68-.68s-.3-.68-.68-.68-.68.3-.68.68.29.68.68.68Zm-1.94,0c.37,0,.68-.29.68-.68s-.3-.68-.68-.68-.68.3-.68.68.29.68.68.68Zm-.89,3.98c0-1.41.87-2.09,1.84-2.09s1.87.68,1.87,2.09-.95,2.1-1.91,2.1-1.81-.69-1.81-2.1Zm5.03,0c0-1.95-1.39-3.2-3.17-3.2s-3.17,1.25-3.17,3.2,1.34,3.21,3.12,3.21,3.23-1.26,3.23-3.21h0Zm-9.62,1.39c0,1.26.69,1.72,1.79,1.72h1.02v-1.07h-.79c-.55,0-.72-.19-.72-.66v-3.44h1.51v-1.05h-1.51v-1.55h-1.29v1.55h-.73v1.05h.73s0,3.44,0,3.44Zm-2.9-1.39c0,1.34-.92,2.1-1.88,2.1s-1.88-.78-1.88-2.12.92-2.06,1.88-2.06,1.88.76,1.88,2.09h0v-.02Zm-5.08-.03c0,1.92,1.29,3.23,2.91,3.23,1.04,0,1.78-.5,2.18-1.03v.92h1.29v-6.22h-1.29v.9c-.39-.5-1.11-1-2.16-1-1.64,0-2.93,1.26-2.93,3.18h0Zm-2.33-.13c0-1.32.59-1.71,1.53-1.71h.33v-1.33c-.88,0-1.5.39-1.86,1v-.9h-1.29v6.22h1.29v-3.27h0Zm-2.42,1.42h-1.39c-.24.49-.68.87-1.46.87-.95,0-1.68-.62-1.77-1.65h4.75c.03-.22.04-.42.04-.63,0-1.83-1.25-3.06-3.02-3.06s-3.1,1.25-3.1,3.2,1.32,3.21,3.1,3.21c1.52,0,2.5-.87,2.86-1.95h0Zm-2.91-3.38c.96,0,1.71.61,1.74,1.57h-3.44c.13-.98.83-1.57,1.71-1.57h0Zm-4.91,2.09c0,1.34-.92,2.12-1.9,2.12s-1.88-.76-1.88-2.1.92-2.09,1.88-2.09,1.9.72,1.9,2.06h0v.02Zm-3.78-2.16v-.92h-1.29v9.17h1.29v-3.86c.41.49,1.13,1,2.17,1,1.64,0,2.92-1.32,2.92-3.23s-1.29-3.18-2.92-3.18c-1.02,0-1.77.5-2.17,1.02h0Zm-8.94,1.36c0-1.77,1.13-2.87,2.68-2.87s2.68,1.11,2.68,2.87-1.13,2.9-2.68,2.9-2.68-1.13-2.68-2.9Zm6.69,0c0-2.34-1.77-4-4-4s-4,1.66-4,4,1.79,4.02,4,4.02,4-1.66,4-4.02h0Zm-13.19,3.94h1.29v-8.34h-1.29v8.34Zm-2.7-3.12c0,1.34-.92,2.1-1.88,2.1s-1.88-.78-1.88-2.12.92-2.06,1.88-2.06,1.88.76,1.88,2.09h0v-.02Zm-5.08-.03c0,1.92,1.29,3.23,2.91,3.23,1.04,0,1.78-.5,2.18-1.03v.92h1.29v-6.22h-1.29v.9c-.39-.5-1.11-1-2.16-1-1.64,0-2.93,1.26-2.93,3.18h0Zm-3.28,1.41c0,1.26.69,1.72,1.79,1.72h1.02v-1.07h-.79c-.55,0-.72-.19-.72-.66v-3.44h1.51v-1.05h-1.51v-1.55h-1.29v1.55h-.73v1.05h.73v3.44Zm-2.23-5.31c.45,0,.81-.36.81-.82s-.36-.82-.81-.82-.82.36-.82.82.36.82.82.82Zm-.66,7.04h1.29v-6.22h-1.29v6.22Zm-2.69-6.22v7.43c0,.46-.18.66-.72.66h-.44v1.08h.66c1.11,0,1.78-.48,1.78-1.74v-7.43h-1.29Zm.66-.82c.45,0,.81-.36.81-.82s-.36-.82-.81-.82-.82.36-.82.82.36.82.82.82Zm-2.68,0c.45,0,.81-.36.81-.82s-.36-.82-.81-.82-.82.36-.82.82.36.82.82.82Zm-.66,7.04h1.29v-6.22h-1.29v6.22Zm-6.42-1.05v-5.74h1.27c1.85,0,2.84,1.11,2.84,2.9s-.99,2.84-2.84,2.84h-1.27Zm1.28-6.79h-2.56v7.84h2.56c2.51,0,4.16-1.48,4.16-3.89s-1.65-3.95-4.16-3.95Z"></path></svg>