<?xml version="1.0" encoding="UTF-8"?>
<svg id="katman_1" xmlns="http://www.w3.org/2000/svg" version="1.1" viewBox="0 0 182 56">
  <!-- Generator: Adobe Illustrator 30.0.0, SVG Export Plug-In . SVG Version: 2.1.1 Build 123)  -->
  <defs>
    <style>
      .st0 {
        fill: #fff;
      }
    </style>
  </defs>
  <g id="Layer_2">
    <g id="Layer_1-2">
      <path class="st0" d="M16.36,36.02c-2.04.07-4.05-.46-5.8-1.5-1.57-.96-2.74-2.45-3.3-4.2l3.9-2.3c.75,2.25,2.94,3.7,5.3,3.5.99.1,1.98-.15,2.8-.7.99-.73,1.19-2.12.46-3.11-.18-.24-.4-.44-.66-.59-1.23-.66-2.54-1.17-3.9-1.5-.88-.25-1.75-.55-2.6-.9-.76-.34-1.5-.74-2.2-1.2-.72-.5-1.27-1.19-1.6-2-.42-.87-.63-1.83-.6-2.8-.1-1.92.71-3.78,2.2-5,1.52-1.24,3.43-1.91,5.4-1.9,1.77,0,3.5.47,5,1.4,1.42.94,2.56,2.26,3.3,3.8l-3.8,2.2c-.67-1.84-2.44-3.04-4.4-3-.78-.04-1.55.17-2.2.6-.51.41-.81,1.04-.8,1.7,0,.71.34,1.37.9,1.8,1.09.66,2.27,1.17,3.5,1.5.7.2,1.2.4,1.6.5.52.15,1.02.35,1.5.6.6.3,1.1.5,1.5.7s.7.5,1.2.9c.39.35.73.75,1,1.2.2.4.4.9.6,1.4.16.58.23,1.19.2,1.8.05,1.96-.8,3.84-2.3,5.1-1.75,1.41-3.96,2.12-6.2,2Z"/>
      <path class="st0" d="M32.16,31.22h9.8v4.4h-14.3V12.42h14.2v4.4h-9.6v4.9h8.8v4.3h-8.8v5.2s-.1,0-.1,0Z"/>
      <path class="st0" d="M62.36,20.02c.63,1.2.94,2.54.9,3.9.09,2.03-.72,4.01-2.2,5.4-2.98,2.8-7.62,2.8-10.6,0-1.44-1.42-2.24-3.37-2.2-5.4-.07-2.06.73-4.05,2.2-5.5,1.08-1.09,2.48-1.79,4-2l.2-4.5c-2.8.2-5.43,1.41-7.4,3.4-2.3,2.27-3.56,5.37-3.5,8.6-.04,3.22,1.22,6.32,3.5,8.6,2.24,2.28,5.31,3.54,8.5,3.5,3.2.06,6.27-1.21,8.5-3.5,2.3-2.27,3.56-5.37,3.5-8.6.07-2.51-.7-4.98-2.2-7,0,0-3.2,3.1-3.2,3.1Z"/>
      <path class="st0" d="M74.06,33.42h11.3v2.2h-13.6V12.42h13.4v2.2h-11.1v8.2h10.3v2.2h-10.3s0,8.4,0,8.4Z"/>
      <path class="st0" d="M111.26,24.52v1.2c.07,2.77-1.06,5.43-3.1,7.3-2.22,2.05-5.18,3.13-8.2,3-3.26.08-6.41-1.18-8.7-3.5-2.25-2.25-3.48-5.32-3.4-8.5-.1-3.18,1.14-6.26,3.4-8.5,2.27-2.35,5.43-3.63,8.7-3.5,2.08-.03,4.12.53,5.9,1.6,1.74.94,3.16,2.36,4.1,4.1l-2.1,1.2c-.74-1.4-1.84-2.58-3.2-3.4-1.43-.84-3.05-1.28-4.7-1.3-2.66-.12-5.24.9-7.1,2.8-1.78,1.85-2.75,4.33-2.7,6.9-.05,2.57.92,5.05,2.7,6.9,1.86,1.9,4.44,2.92,7.1,2.8,2.27.09,4.5-.62,6.3-2,1.55-1.22,2.53-3.03,2.7-5h-9.2v-2.2h11.5v.1ZM99.46,10.32c-1.23.04-2.43-.35-3.4-1.1-.86-.84-1.34-2-1.3-3.2h2.1c0,1.6.8,2.4,2.5,2.4s2.5-.8,2.5-2.4h2.1c.07,1.19-.37,2.35-1.2,3.2-.92.78-2.1,1.17-3.3,1.1h0Z"/>
      <path class="st0" d="M117.66,9.12c-.34.35-.81.53-1.3.5-.48,0-.94-.19-1.3-.5-.35-.34-.53-.81-.5-1.3,0-.48.19-.94.5-1.3.34-.35.81-.53,1.3-.5.48,0,.94.19,1.3.5.35.34.53.81.5,1.3.1.49-.1,1-.5,1.3ZM115.26,12.42h2.3v23.2h-2.3V12.42Z"/>
      <path class="st0" d="M137.46,12.42v2.2h-7.1v21h-2.3V14.62h-7.1v-2.2h16.5Z"/>
      <path class="st0" d="M143.16,9.12c-.34.35-.81.53-1.3.5-.48,0-.94-.19-1.3-.5-.35-.34-.53-.81-.5-1.3,0-.48.19-.94.5-1.3.34-.35.81-.53,1.3-.5.48,0,.94.19,1.3.5.35.34.53.81.5,1.3.1.49-.1,1-.5,1.3ZM140.76,12.42h2.3v23.2h-2.3V12.42Z"/>
      <path class="st0" d="M169.56,12.42v23.2h-2.3V15.92l-8.1,13.6h-.3l-8.1-13.6v19.7h-2.3V12.42h2.8l7.8,13,7.8-13h2.7Z"/>
      <path class="st0" d="M177.26,9.12c-.34.35-.81.53-1.3.5-.48,0-.94-.19-1.3-.5-.35-.34-.53-.81-.5-1.3,0-.48.19-.94.5-1.3.34-.35.81-.53,1.3-.5.48,0,.94.19,1.3.5.35.34.53.81.5,1.3.1.49-.1,1-.5,1.3ZM174.86,12.42h2.3v23.2h-2.3V12.42Z"/>
      <path class="st0" d="M56.96,25.12c-.29.3-.68.48-1.1.5-.24-.02-.48-.09-.7-.2-.61-.3-1-.92-1-1.6l.1-3.2c-.37.17-.71.41-1,.7-.7.68-1.1,1.62-1.1,2.6.02.98.41,1.91,1.1,2.6.68.7,1.62,1.1,2.6,1.1.98-.02,1.91-.41,2.6-1.1.7-.68,1.1-1.62,1.1-2.6.02-.34-.01-.67-.1-1l-2.5,2.2Z"/>
      <path class="st0" d="M56.36,24.42l11.4-10.8c.21-.17.29-.45.2-.7-.07-.26-.33-.43-.6-.4h0l-4.6-.1,2.1-4.7c.1-.15.1-.35,0-.5-.1-.2-.2-.3-.3-.3l-1.8-.8c-.07-.07-.13-.1-.2-.1h-.2c-.18.08-.32.22-.4.4l-2.2,4.9-2.7-2.8c-.11-.11-.25-.17-.4-.2-.11,0-.22.02-.3.1-.26.07-.43.33-.4.6l-.7,15c-.03.27.14.53.4.6.1,0,.2.1.3.1.11-.12.25-.23.4-.3Z"/>
      <path class="st0" d="M52.03,49.73l-.68-1.88h-3.78l-.68,1.88h-1.19l3.13-8.4h1.26l3.17,8.4s-1.23,0-1.23,0ZM47.95,46.8h3l-1.49-4.14-1.51,4.14Z"/>
      <path class="st0" d="M57.93,43.73h1.11l-2.45,6.37c-.2.61-.57,1.15-1.07,1.56-.45.35-1.02.52-1.59.47v-1c.73.06,1.27-.35,1.61-1.23l.12-.22-2.62-6h1.12l2,4.6s1.77-4.55,1.77-4.55Z"/>
      <path class="st0" d="M62.91,43.58c.63-.03,1.24.21,1.69.66.44.49.68,1.12.66,1.78v3.68h-1v-3.59c0-.41-.17-.8-.46-1.09-.3-.28-.69-.42-1.1-.4-.47-.02-.93.16-1.26.49-.36.41-.53.95-.48,1.49v3.18h-1v-8.4h1v3.27c.4-.69,1.15-1.1,1.95-1.07Z"/>
      <path class="st0" d="M71.66,43.73h1v6h-1v-1c-.49.77-1.35,1.23-2.27,1.19-.8,0-1.58-.32-2.13-.9-1.19-1.26-1.19-3.22,0-4.48.56-.59,1.34-.92,2.15-.91.91-.04,1.78.41,2.27,1.18,0,0-.02-1.08-.02-1.08ZM69.52,48.88c.57.02,1.13-.21,1.52-.62.83-.85.83-2.21,0-3.06-.84-.81-2.16-.81-3,0-.82.86-.82,2.2,0,3.06.39.4.92.63,1.48.62Z"/>
      <path class="st0" d="M77.26,43.58c.63-.03,1.24.21,1.69.66.44.49.68,1.12.65,1.78v3.68h-1v-3.59c0-.41-.16-.8-.44-1.09-.29-.28-.69-.42-1.09-.4-.47-.02-.93.16-1.26.49-.36.41-.53.95-.48,1.49v3.18h-1.07v-6h1v.87c.4-.71,1.18-1.13,2-1.07Z"/>
      <path class="st0" d="M90.6,49.73h-1.9l-3-3.93v3.93h-1.66v-8.4h1.66v3.69l2.88-3.7h1.9l-3.1,4.08s3.22,4.33,3.22,4.33Z"/>
      <path class="st0" d="M97.16,49.73l-.54-1.51h-3.45l-.5,1.51h-1.79l2.94-8.4h2l3,8.4h-1.66ZM93.71,46.67h2.36l-1.21-3.43-1.15,3.43Z"/>
      <path class="st0" d="M104.26,49.73l-1.7-2.91h-1.25v2.91h-1.66v-8.4h3.36c.75-.02,1.48.28,2,.82.54.52.84,1.25.82,2,0,.51-.16,1.02-.45,1.44-.28.44-.69.79-1.17,1l1.86,3.17-1.81-.03h0ZM101.26,42.88v2.48h1.7c.31,0,.6-.13.81-.36.22-.24.34-.56.33-.88,0-.33-.11-.64-.33-.88-.21-.23-.5-.36-.81-.36,0,0-1.7,0-1.7,0Z"/>
      <path class="st0" d="M112.54,49.73l-.53-1.51h-3.45l-.51,1.51h-1.79l2.94-8.4h2.06l3,8.4h-1.72ZM109.1,46.67h2.36l-1.2-3.43-1.16,3.43Z"/>
      <path class="st0" d="M123.26,41.33v8.4h-1.64v-5.45l-2.36,3.9h-.19l-2.36-3.88v5.42h-1.66v-8.4h1.71l2.41,4,2.39-4h1.7Z"/>
      <path class="st0" d="M130.34,49.73l-.54-1.51h-3.45l-.5,1.51h-1.79l2.94-8.4h2.05l3,8.4h-1.71ZM126.89,46.67h2.37l-1.21-3.43-1.16,3.43h0Z"/>
      <path class="st0" d="M137.69,41.33h1.66v8.4h-1.26l-3.6-5.13v5.13h-1.66v-8.4h1.26l3.6,5.12v-5.12Z"/>
    </g>
  </g>
</svg>