<?xml version="1.0" encoding="UTF-8"?>
<svg id="katman_1" xmlns="http://www.w3.org/2000/svg" version="1.1" viewBox="0 0 384 122">
  <!-- Generator: Adobe Illustrator 30.0.0, SVG Export Plug-In . SVG Version: 2.1.1 Build 123)  -->
  <defs>
    <style>
      .st0 {
        fill: #fff;
      }
    </style>
  </defs>
  <g>
    <path class="st0" d="M213.14,66.12v21.65h-10.31v-22.59c0-4.99-2.03-7.48-6.1-7.48-2.37,0-4.2.73-5.48,2.18s-1.92,3.46-1.92,6.03v21.86h-10.31v-38.06h9.52v4.65c1.98-3.68,5.64-5.52,10.97-5.52,5.04,0,8.72,1.79,11.04,5.38,3.24-3.58,7.46-5.38,12.64-5.38,4.45,0,7.87,1.38,10.24,4.14,2.37,2.76,3.56,6.44,3.56,11.04v23.75h-10.31v-22.59c0-4.99-2.03-7.48-6.1-7.48-2.42,0-4.26.74-5.52,2.22-1.26,1.48-1.89,3.55-1.89,6.21h-.03Z"/>
    <path class="st0" d="M251.9,62.27l-9.88-1.82c.63-3.39,2.31-6.17,5.05-8.35s6.69-3.27,11.88-3.27c5.52,0,9.68,1.23,12.49,3.7s4.21,5.96,4.21,10.46v14.75c0,1.65.68,2.47,2.03,2.47l1.09-.07v7.84c-.53.19-1.43.29-2.69.29-4.36,0-7.24-1.57-8.64-4.72-3.15,3.39-7.53,5.08-13.15,5.08-4.41,0-7.74-1.04-9.99-3.12s-3.38-4.77-3.38-8.06c0-6.74,4.95-10.93,14.86-12.57l10.05-1.66v-.29c0-3.73-2.3-5.59-6.9-5.59-4.21,0-6.56,1.65-7.05,4.94h.02ZM265.85,70.65l-9.05,1.72c-2.09.38-3.6.92-4.52,1.61s-1.39,1.6-1.39,2.75c0,2.62,1.91,3.92,5.74,3.92,2.95,0,5.23-.78,6.83-2.34,1.6-1.56,2.4-3.66,2.4-6.29v-1.37h0Z"/>
    <path class="st0" d="M304.77,49.41v9.66c-.73-.15-1.41-.22-2.03-.22-3.05,0-5.34.8-6.86,2.4-1.53,1.6-2.29,4.12-2.29,7.55v18.96h-10.31v-38.06h9.52v4.94c2.18-3.53,5.76-5.3,10.75-5.3l1.23.07h-.01Z"/>
    <path class="st0" d="M332.58,49.7h12.93l-14.24,16.2,15.25,21.86h-12.2l-9.88-15.04-5.74,6.54v8.5h-10.31v-54.48h10.31v33.7l13.87-17.29h.01Z"/>
    <path class="st0" d="M356.41,62.27l-9.88-1.82c.63-3.39,2.31-6.17,5.05-8.35s6.69-3.27,11.88-3.27c5.52,0,9.68,1.23,12.49,3.7s4.21,5.96,4.21,10.46v14.75c0,1.65.68,2.47,2.03,2.47l1.09-.07v7.84c-.53.19-1.43.29-2.69.29-4.36,0-7.24-1.57-8.64-4.72-3.15,3.39-7.53,5.08-13.15,5.08-4.41,0-7.74-1.04-9.99-3.12s-3.38-4.77-3.38-8.06c0-6.74,4.95-10.93,14.86-12.57l10.05-1.66v-.29c0-3.73-2.3-5.59-6.9-5.59-4.21,0-6.56,1.65-7.05,4.94h.02ZM370.35,70.65l-9.05,1.72c-2.09.38-3.6.92-4.52,1.61-.92.69-1.39,1.6-1.39,2.75,0,2.62,1.91,3.92,5.74,3.92,2.95,0,5.23-.78,6.83-2.34,1.6-1.56,2.4-3.66,2.4-6.29v-1.37h0Z"/>
    <g>
      <path class="st0" d="M151.35,65.9l14.24-16.2h-12.93l-13.87,17.29v-33.7h-10.31v18.35c.24.18.49.37.71.57,2.49,2.25,4.01,4.93,4.54,8.03l-5.25.98v5.65c1.53.68,2.81,1.82,3.84,3.43,1.04,1.62,1.56,3.67,1.56,6.14,0,3.54-1.44,6.45-4.32,8.75-.34.27-.7.53-1.08.77v1.81h10.31v-8.5l5.74-6.54,9.88,15.04h12.2l-15.25-21.86h0Z"/>
      <g>
        <path class="st0" d="M131.64,69.38c.09.11.18.22.26.33-.08-.12-.17-.22-.26-.33Z"/>
        <polygon class="st0" points="128.47 51.64 128.47 51.64 128.47 51.64 128.47 51.64"/>
        <path class="st0" d="M128.47,66.87c.76.34,1.46.8,2.1,1.37-.64-.57-1.34-1.03-2.1-1.37Z"/>
        <path class="st0" d="M131.04,68.69c-.15-.15-.3-.3-.46-.44.16.14.31.29.46.44Z"/>
        <path class="st0" d="M131.11,68.77c.13.13.25.27.37.41-.12-.14-.25-.28-.37-.41Z"/>
      </g>
    </g>
    <path class="st0" d="M128.47,66.87s-.03-.02-.05-.02c-1.55-.68-3.22-1.23-5.01-1.67-1.79-.44-3.46-.75-5.01-.94s-2.85-.57-3.89-1.13-1.56-1.32-1.56-2.29c0-1.06.46-1.95,1.38-2.65s2.2-1.05,3.85-1.05c1.79,0,3.18.46,4.18,1.38.99.92,1.54,2.11,1.63,3.56l9.73-1.82-5.25.98v-9.58c-2.46-1.86-5.86-2.81-10.22-2.81s-8.23,1.21-11.04,3.63c-2.81,2.42-4.21,5.4-4.21,8.93,0,2.81.73,5.06,2.18,6.76,1.45,1.7,3.21,2.83,5.27,3.41s4.1,1.04,6.14,1.38c2.03.34,3.78.79,5.23,1.34,1.45.56,2.18,1.42,2.18,2.58,0,1.07-.51,1.91-1.53,2.54s-2.49.94-4.43.94-3.58-.48-4.65-1.45c-1.07-.97-1.65-2.2-1.74-3.7l-10.24,1.45c1.06,7.99,6.51,11.98,16.34,11.98,4.39,0,7.97-.89,10.73-2.68v-19.09.02Z"/>
  </g>
  <g>
    <polygon class="st0" points="46.66 80.38 46.66 121.68 46.6 121.68 38.84 117.47 34.96 115.36 27.14 111.11 27.14 83.1 34.96 87.34 34.96 106.46 38.84 108.57 38.84 85.04 23.22 76.57 15.4 72.32 15.4 39.66 46.66 39.66 46.66 75.97 38.84 71.73 38.84 47.48 23.22 47.48 23.22 67.68 46.66 80.38 46.66 80.38"/>
    <polygon class="st0" points="34.96 69.63 27.14 65.4 27.14 52.14 34.96 52.14 34.96 69.63"/>
    <polygon class="st0" points="23.22 80.97 23.22 109 23.2 109 15.42 104.78 15.42 76.75 23.22 80.97"/>
    <polygon class="st0" points="85.75 39.66 85.75 73.87 80.96 78.66 85.75 83.46 85.75 104.73 85.7 104.76 78.01 108.93 77.93 108.93 77.93 86.69 73.88 82.64 73.76 82.52 62.3 82.52 62.3 117.45 54.5 121.68 54.48 121.68 54.48 39.66 62.3 39.66 62.3 74.7 73.86 74.7 73.88 74.68 77.93 70.63 77.93 39.66 85.75 39.66"/>
    <polygon class="st0" points="74.07 39.66 74.07 55.34 74.06 55.34 74.06 68.94 72.17 70.82 66.17 70.82 66.17 39.66 74.07 39.66"/>
    <polygon class="st0" points="74.07 101.89 74.07 111.06 66.17 115.35 66.17 86.4 72.17 86.4 74.06 88.29 74.06 101.89 74.07 101.89"/>
    <rect class="st0" x="7.59" y="23.89" width="85.97" height="7.95"/>
    <rect class="st0" x="-.24" y=".25" width="101.64" height="15.82"/>
  </g>
</svg>