<svg xmlns="http://www.w3.org/2000/svg" id="katman_1" data-name="katman 1" viewBox="0 0 388 80"><defs><style> .cls-1 { fill: #fff; stroke-width: 0px; } </style></defs><polygon class="cls-1" points="164 50 174 50 174 10 204 10 204 0 164 0 164 50"></polygon><polygon class="cls-1" points="80 36.91 50 21.91 50 0 40 0 40 40 10 40 10 0 0 0 0 50 50 50 50 33.09 90 53.09 90 0 80 0 80 36.91"></polygon><path class="cls-1" d="m102,50h50V0h-50v50Zm10-40h30v30h-30V10Z"></path><path class="cls-1" d="m276,50h50V0h-50v50Zm10-40h30v30h-30V10Z"></path><path class="cls-1" d="m338,0v50h50V0h-50Zm40,40h-30V10h30v30Z"></path><path class="cls-1" d="m214,40l40,10v20h-40v10h50V0h-50v40Zm10-30h30v29.69l-30-7.5V10Z"></path></svg>