<svg xmlns="http://www.w3.org/2000/svg" id="katman_1" data-name="katman 1" viewBox="0 0 256 108"><defs><style> .cls-1 { fill: #0a141e; stroke-width: 0px; } </style></defs><path class="cls-1" d="m148.35,28.94l-1.2-3.99-2.32,3.16c-.66.87-1.74,1.33-2.82,1.16-3.94-.62-7.93-1.08-11.96-1.33-1.58-.08-2.99-1.04-3.69-2.45l-3.32-6.64-3.32,6.64c-.71,1.41-2.12,2.37-3.69,2.45-4.03.25-8.05.66-11.96,1.33-1.08.17-2.16-.29-2.82-1.16l-2.32-3.16-1.2,3.99c-.29,1.04-1.12,1.79-2.16,2.03-13.58,3.24-26.2,8.8-37.49,16.23,19.6-9.63,41.64-15.03,64.97-15.03s45.34,5.4,64.97,15.03c-11.29-7.43-23.91-12.99-37.45-16.23-1.08-.25-1.91-1-2.2-2.03Z"></path><g><polygon class="cls-1" points="84.04 46.71 79.73 46.71 79.73 70.96 95.96 70.96 95.96 66.6 84.04 66.6 84.04 46.71"></polygon><polygon class="cls-1" points="100.28 70.96 118.21 70.96 118.21 66.6 104.59 66.6 104.59 60.99 116.22 60.99 116.22 56.68 104.59 56.68 104.59 51.03 118.21 51.03 118.21 46.71 100.28 46.71 100.28 70.96"></polygon><polygon class="cls-1" points="121.49 51.03 129.13 51.03 129.13 70.96 133.49 70.96 133.49 51.03 141.09 51.03 141.09 46.71 121.49 46.71 121.49 51.03"></polygon><path class="cls-1" d="m166.04,49.04c-.21-.46-.46-.87-.83-1.2-.33-.33-.75-.62-1.2-.83s-.95-.29-1.49-.29h-13.29c-.54,0-1.04.12-1.49.29-.46.21-.87.46-1.2.83-.33.33-.62.75-.83,1.2s-.29.95-.29,1.49v16.61c0,.54.08,1.04.29,1.49s.46.87.83,1.2c.33.33.75.62,1.2.83.46.21.95.29,1.49.29h13.29c.54,0,1.04-.08,1.49-.29s.87-.46,1.2-.83c.33-.33.62-.75.83-1.2s.29-.95.29-1.49v-16.61c0-.54-.12-1.04-.29-1.49Zm-4.07,1.99v15.57h-12.25v-15.57h12.25Z"></path></g><g><path class="cls-1" d="m101.31,78.14v7.18h-1.04v-7.18h1.04Z"></path><path class="cls-1" d="m105.76,85.32h-1.04v-7.18h1.04l4.32,5.56v-5.56h1.04v7.18h-1.04l-4.32-5.56v5.56Z"></path><path class="cls-1" d="m116.63,85.32l-2.78-7.18h1.08l2.24,5.9,2.24-5.9h1.08l-2.78,7.18h-1.08Z"></path><path class="cls-1" d="m123.36,78.14h5.23v1.04h-4.19v2.03h3.57v1.04h-3.57v2.03h4.19v1.04h-5.23v-7.18Z"></path><path class="cls-1" d="m132.7,82.25c-.12,0-.29-.04-.42-.08-.12-.04-.25-.12-.33-.21s-.17-.21-.21-.33-.08-.25-.08-.42v-2.03c0-.12.04-.29.08-.42.04-.12.12-.25.21-.33s.21-.17.33-.21.25-.08.42-.08h3.49c.12,0,.29.04.42.08.12.04.25.12.33.21s.17.21.21.33.08.25.08.42v.91h-1.04v-.91h-3.49v2.03h3.49c.12,0,.29.04.42.08.12.04.25.12.33.21s.17.21.21.33.08.25.08.42v2.03c0,.12-.04.29-.08.42s-.12.25-.21.33-.21.17-.33.21-.25.08-.42.08h-3.57c-.12,0-.29-.04-.42-.08-.12-.04-.25-.12-.33-.21s-.17-.21-.21-.33-.08-.25-.08-.42v-.91h1.04v.91h3.57v-2.03h-3.49Z"></path><path class="cls-1" d="m140.01,78.14h5.73v1.04h-2.37v6.14h-1.04v-6.14h-2.37v-1.04h.04Z"></path></g></svg>