<svg xmlns="http://www.w3.org/2000/svg" id="katman_1" data-name="katman 1" viewBox="0 0 256 108"><defs><style> .cls-1 { fill: #1d1d1b; stroke-width: 0px; } </style></defs><g id="b"><g id="c"><g><g><g><path class="cls-1" d="m91.85,64.52v.23h-2.02v1.52h1.68v.22h-1.68v1.57h2.03v.23h-2.31v-3.76h2.3Z"></path><path class="cls-1" d="m94.35,64.98s-.04.05-.07.05c-.02,0-.05-.02-.09-.05-.04-.03-.09-.07-.15-.11s-.14-.08-.24-.11c-.1-.03-.21-.05-.35-.05s-.26.02-.37.06c-.11.04-.2.09-.26.16-.07.07-.13.14-.16.23-.04.09-.06.18-.06.28,0,.13.03.23.08.32.05.08.13.15.22.21.09.06.19.11.31.15s.23.08.35.12.24.08.35.13c.11.05.22.11.31.18.09.07.16.16.22.26.05.1.08.23.08.39s-.03.31-.08.44c-.05.14-.14.26-.24.36-.11.1-.23.18-.38.24s-.32.09-.52.09c-.25,0-.47-.05-.66-.13-.18-.09-.34-.21-.48-.36l.08-.12s.05-.04.08-.04c.02,0,.04.01.06.03.02.02.06.05.09.08.04.03.08.06.13.1.05.04.11.07.18.1.07.03.14.06.23.08.09.02.19.03.29.03.15,0,.29-.02.41-.07s.22-.11.3-.18c.08-.08.14-.17.19-.28s.07-.22.07-.34c0-.13-.03-.24-.08-.33-.05-.09-.13-.16-.22-.22s-.19-.11-.31-.14c-.11-.04-.23-.08-.35-.11-.12-.04-.24-.08-.35-.13-.11-.05-.22-.11-.31-.18-.09-.07-.16-.16-.22-.27s-.08-.24-.08-.4c0-.13.02-.25.07-.36s.12-.22.21-.31c.09-.09.21-.16.35-.22s.3-.08.48-.08c.2,0,.38.03.54.09.16.06.3.16.43.29l-.07.12h0Z"></path><path class="cls-1" d="m97.67,64.52v.23h-1.35v3.53h-.28v-3.53h-1.36v-.23h2.99Z"></path><path class="cls-1" d="m100.4,64.52v.23h-2.02v1.52h1.68v.22h-1.68v1.57h2.03v.23h-2.31v-3.76h2.3Z"></path><path class="cls-1" d="m103.53,64.52v.23h-1.35v3.53h-.28v-3.53h-1.36v-.23h2.99Z"></path><path class="cls-1" d="m104.33,63.83s0,.06-.02.09c-.01.03-.03.05-.05.07s-.05.04-.08.05c-.03.01-.06.02-.09.02s-.06,0-.09-.02-.05-.03-.08-.05-.04-.05-.05-.07-.02-.06-.02-.09c0-.03,0-.06.02-.09.01-.03.03-.05.05-.07.02-.02.05-.04.08-.05s.06-.02.09-.02.06,0,.09.02.05.03.08.05.04.05.05.07.02.06.02.09Zm-.1,4.45h-.28v-3.76h.28v3.76Z"></path><path class="cls-1" d="m105.43,66.26h.23s.06,0,.09,0c.02,0,.05,0,.07-.02s.04-.02.06-.03c.02-.01.04-.03.05-.05l1.55-1.56s.05-.05.08-.06c.03-.01.06-.02.09-.02h.22l-1.68,1.69s-.07.06-.09.08-.06.04-.09.05c.04.01.07.03.1.05.03.02.06.05.09.09l1.77,1.81h-.23s-.08,0-.1-.02c-.02-.01-.04-.03-.06-.05l-1.62-1.63s-.04-.04-.06-.05-.04-.03-.06-.04-.05-.02-.07-.02c-.03,0-.06,0-.11,0h-.25v1.81h-.28v-3.76h.28v1.73h0Z"></path><path class="cls-1" d="m109.92,66.76v1.52h-.28v-3.76h1c.45,0,.79.1,1.02.29s.34.47.34.83c0,.17-.03.32-.1.45-.06.14-.15.26-.27.36s-.26.18-.43.23-.36.08-.57.08h-.72,0Zm0-.22h.72c.17,0,.32-.02.45-.07s.25-.11.34-.19.17-.18.21-.29c.05-.11.08-.23.08-.36,0-.29-.09-.51-.27-.67-.18-.16-.45-.23-.81-.23h-.72v1.81h0Z"></path><path class="cls-1" d="m112.85,68.05h1.82v.23h-2.1v-3.76h.28v3.53Z"></path><path class="cls-1" d="m118.02,68.28h-.21s-.05,0-.06-.02c-.02-.01-.03-.03-.04-.05l-.45-1.09h-1.89l-.45,1.09s-.02.04-.04.05-.04.02-.07.02h-.21l1.57-3.76h.27l1.57,3.76h0Zm-2.57-1.37h1.72l-.78-1.9c-.03-.06-.05-.14-.08-.22-.01.04-.02.08-.04.12-.01.04-.02.07-.04.1l-.78,1.9h0Z"></path><path class="cls-1" d="m120.3,64.98s-.04.05-.07.05c-.02,0-.05-.02-.09-.05-.04-.03-.09-.07-.15-.11s-.14-.08-.24-.11c-.1-.03-.21-.05-.35-.05s-.26.02-.37.06c-.11.04-.2.09-.26.16-.07.07-.13.14-.16.23-.04.09-.06.18-.06.28,0,.13.03.23.08.32.05.08.13.15.22.21.09.06.19.11.31.15s.23.08.35.12.24.08.35.13c.11.05.22.11.31.18.09.07.16.16.22.26.05.1.08.23.08.39s-.03.31-.08.44c-.05.14-.14.26-.24.36-.11.1-.23.18-.38.24s-.32.09-.52.09c-.25,0-.47-.05-.66-.13-.18-.09-.34-.21-.48-.36l.08-.12s.05-.04.08-.04c.02,0,.04.01.06.03.02.02.06.05.09.08.04.03.08.06.13.1.05.04.11.07.18.1.07.03.14.06.23.08.09.02.19.03.29.03.15,0,.29-.02.41-.07s.22-.11.3-.18c.08-.08.14-.17.19-.28s.07-.22.07-.34c0-.13-.03-.24-.08-.33-.05-.09-.13-.16-.22-.22s-.19-.11-.31-.14c-.11-.04-.23-.08-.35-.11-.12-.04-.24-.08-.35-.13-.11-.05-.22-.11-.31-.18-.09-.07-.16-.16-.22-.27s-.08-.24-.08-.4c0-.13.02-.25.07-.36s.12-.22.21-.31c.09-.09.21-.16.35-.22s.3-.08.48-.08c.2,0,.38.03.54.09.16.06.3.16.43.29l-.07.12h0Z"></path><path class="cls-1" d="m123.62,64.52v.23h-1.35v3.53h-.28v-3.53h-1.36v-.23h2.99Z"></path><path class="cls-1" d="m124.43,63.83s0,.06-.02.09c-.01.03-.03.05-.05.07s-.05.04-.08.05c-.03.01-.06.02-.09.02s-.06,0-.09-.02-.05-.03-.08-.05-.04-.05-.05-.07-.02-.06-.02-.09c0-.03,0-.06.02-.09.01-.03.03-.05.05-.07s.05-.04.08-.05.06-.02.09-.02.06,0,.09.02.05.03.08.05.04.05.05.07.02.06.02.09Zm-.1,4.45h-.28v-3.76h.28v3.76Z"></path><path class="cls-1" d="m125.53,66.26h.23s.06,0,.09,0c.02,0,.05,0,.07-.02s.04-.02.06-.03c.02-.01.04-.03.05-.05l1.55-1.56s.05-.05.08-.06c.03-.01.06-.02.09-.02h.22l-1.68,1.69s-.07.06-.09.08-.06.04-.09.05c.04.01.07.03.1.05s.06.05.09.09l1.77,1.81h-.23s-.08,0-.1-.02-.04-.03-.06-.05l-1.62-1.63s-.04-.04-.06-.05-.04-.03-.06-.04-.05-.02-.07-.02c-.03,0-.06,0-.11,0h-.25v1.81h-.28v-3.76h.28v1.73h0Z"></path><path class="cls-1" d="m129.06,64.52h.22s.05,0,.06.02c.02.01.03.03.04.05l1.31,3.12s.03.08.04.13c.02.05.03.09.04.14.01-.05.02-.09.04-.14s.03-.09.05-.13l1.3-3.12s.02-.04.04-.05.04-.02.07-.02h.22l-1.58,3.76h-.25l-1.59-3.76h0Z"></path><path class="cls-1" d="m135.2,64.52v.23h-2.02v1.52h1.68v.22h-1.68v1.57h2.03v.23h-2.31v-3.76h2.3Z"></path><path class="cls-1" d="m137.36,66.58v1.7h-.28v-3.76h.98c.44,0,.77.08.99.25s.33.41.33.74c0,.14-.03.27-.08.39-.05.12-.13.22-.22.31-.1.09-.21.16-.35.22-.14.06-.29.1-.45.11.04.03.08.06.12.11l1.32,1.63h-.24s-.06,0-.08-.02-.04-.03-.06-.05l-1.23-1.52s-.03-.04-.05-.05-.03-.02-.05-.03-.04-.02-.07-.02-.06,0-.1,0h-.51Zm0-.2h.66c.17,0,.32-.02.46-.06.14-.04.25-.1.34-.17.09-.08.17-.16.21-.27s.07-.22.07-.35c0-.27-.09-.47-.27-.6-.18-.13-.44-.19-.78-.19h-.7v1.64h0Z"></path><path class="cls-1" d="m142.47,64.52v.23h-2.02v1.52h1.68v.22h-1.68v1.57h2.03v.23h-2.31v-3.76h2.3Z"></path><path class="cls-1" d="m143.38,66.26h.23s.06,0,.09,0c.02,0,.05,0,.07-.02s.04-.02.06-.03c.02-.01.04-.03.05-.05l1.55-1.56s.05-.05.08-.06c.03-.01.06-.02.09-.02h.22l-1.68,1.69s-.07.06-.09.08-.06.04-.09.05c.04.01.07.03.1.05s.06.05.09.09l1.77,1.81h-.23s-.08,0-.1-.02-.04-.03-.06-.05l-1.62-1.63s-.04-.04-.06-.05-.04-.03-.06-.04-.05-.02-.07-.02c-.03,0-.06,0-.11,0h-.25v1.81h-.28v-3.76h.28v1.73h0Z"></path><path class="cls-1" d="m149.47,66.4c0,.29-.05.55-.13.79s-.21.44-.38.6c-.16.17-.35.3-.58.39-.23.09-.48.14-.75.14s-.52-.05-.74-.14c-.23-.09-.42-.22-.58-.39-.16-.17-.29-.37-.38-.6s-.13-.5-.13-.79.05-.55.13-.79.21-.44.38-.6c.16-.17.35-.3.58-.39.23-.09.47-.14.74-.14s.52.05.75.14c.23.09.42.22.58.39.16.17.29.37.38.61.09.24.13.5.13.79h0Zm-.29,0c0-.26-.04-.5-.11-.71s-.18-.38-.32-.53c-.14-.14-.3-.26-.49-.33-.19-.08-.4-.11-.63-.11s-.44.04-.63.11c-.19.08-.35.19-.49.33-.14.14-.24.32-.32.53s-.11.44-.11.71.04.5.11.71c.08.21.18.38.32.53.14.14.3.26.49.33s.4.11.63.11.44-.04.63-.11c.19-.08.35-.19.49-.33.14-.14.24-.32.32-.53.08-.21.11-.44.11-.71Z"></path><path class="cls-1" d="m150.34,64.53s.03.02.05.04l2.49,3.26c0-.05,0-.11,0-.15v-3.15h.24v3.76h-.13s-.04,0-.06-.01-.03-.02-.05-.04l-2.5-3.26c0,.05,0,.1,0,.15v3.16h-.24v-3.76h.14s.05,0,.06,0h0Z"></path><path class="cls-1" d="m155.89,64.98s-.04.05-.07.05c-.02,0-.05-.02-.09-.05s-.09-.07-.15-.11-.14-.08-.24-.11c-.1-.03-.21-.05-.35-.05s-.26.02-.37.06c-.11.04-.2.09-.26.16-.07.07-.13.14-.16.23-.04.09-.06.18-.06.28,0,.13.03.23.08.32.05.08.13.15.22.21.09.06.19.11.31.15.11.04.23.08.35.12s.24.08.35.13c.11.05.22.11.31.18.09.07.16.16.22.26.05.1.08.23.08.39s-.03.31-.08.44c-.05.14-.14.26-.24.36-.11.1-.23.18-.38.24s-.32.09-.52.09c-.25,0-.47-.05-.66-.13-.18-.09-.34-.21-.48-.36l.08-.12s.05-.04.08-.04c.02,0,.04.01.06.03.02.02.06.05.09.08.04.03.08.06.13.1.05.04.11.07.18.1.07.03.14.06.23.08.09.02.19.03.29.03.15,0,.29-.02.41-.07s.22-.11.3-.18c.08-.08.14-.17.19-.28s.07-.22.07-.34c0-.13-.03-.24-.08-.33-.05-.09-.13-.16-.22-.22s-.19-.11-.31-.14c-.11-.04-.23-.08-.35-.11-.12-.04-.24-.08-.35-.13-.11-.05-.22-.11-.31-.18-.09-.07-.16-.16-.22-.27s-.08-.24-.08-.4c0-.13.02-.25.07-.36s.12-.22.21-.31.21-.16.35-.22.3-.08.48-.08c.2,0,.38.03.54.09.16.06.3.16.43.29l-.07.12h0Z"></path><path class="cls-1" d="m159.21,64.52v.23h-1.35v3.53h-.28v-3.53h-1.36v-.23h2.99Z"></path><path class="cls-1" d="m159.92,66.58v1.7h-.28v-3.76h.98c.44,0,.77.08.99.25s.33.41.33.74c0,.14-.03.27-.08.39-.05.12-.13.22-.22.31-.1.09-.21.16-.35.22-.14.06-.29.1-.45.11.04.03.08.06.12.11l1.32,1.63h-.24s-.06,0-.08-.02-.04-.03-.06-.05l-1.23-1.52s-.03-.04-.05-.05-.03-.02-.05-.03-.04-.02-.07-.02-.06,0-.1,0h-.51Zm0-.2h.66c.17,0,.32-.02.46-.06.14-.04.25-.1.34-.17.09-.08.17-.16.21-.27s.07-.22.07-.35c0-.27-.09-.47-.27-.6-.18-.13-.44-.19-.78-.19h-.7v1.64h0Z"></path><path class="cls-1" d="m164.13,68.09c.18,0,.35-.03.5-.09.15-.06.27-.15.37-.26.1-.11.18-.24.23-.39s.08-.32.08-.49v-2.32h.28v2.32c0,.21-.03.4-.1.58-.07.18-.16.34-.29.47-.13.13-.28.24-.46.32-.18.08-.38.11-.61.11s-.43-.04-.61-.11c-.18-.08-.33-.18-.46-.32s-.22-.29-.29-.47c-.07-.18-.1-.37-.1-.58v-2.32h.28v2.32c0,.17.03.34.08.49s.13.28.23.39.22.2.37.26c.14.06.31.1.5.1h0Zm-.31-4.23s0,.05-.02.08-.03.05-.05.07c-.02.02-.04.03-.07.05-.03.01-.05.02-.08.02s-.06,0-.08-.02-.05-.03-.07-.05c-.02-.02-.04-.04-.05-.07-.01-.02-.02-.05-.02-.08s0-.06.02-.08c.01-.03.03-.05.05-.07s.04-.04.07-.05.05-.02.08-.02.06,0,.08.02.05.03.07.05.04.05.05.07c.01.03.02.05.02.08Zm1.06,0s0,.05-.02.08-.03.05-.05.07-.05.03-.07.05-.05.02-.08.02-.06,0-.08-.02c-.03-.01-.05-.03-.07-.05-.02-.02-.04-.04-.05-.07-.01-.02-.02-.05-.02-.08,0-.06.02-.11.07-.15s.1-.07.15-.07c.03,0,.06,0,.08.02s.05.03.07.05c.02.02.04.05.05.07.01.03.02.05.02.08h0Z"></path><path class="cls-1" d="m166.73,66.26h.23s.06,0,.09,0c.02,0,.05,0,.07-.02s.04-.02.06-.03c.02-.01.04-.03.05-.05l1.55-1.56s.05-.05.08-.06c.03-.01.06-.02.09-.02h.22l-1.68,1.69s-.07.06-.09.08-.06.04-.09.05c.04.01.07.03.1.05s.06.05.09.09l1.77,1.81h-.23s-.08,0-.1-.02-.04-.03-.06-.05l-1.62-1.63s-.04-.04-.06-.05-.04-.03-.06-.04-.05-.02-.07-.02c-.03,0-.06,0-.11,0h-.25v1.81h-.28v-3.76h.28v1.73h0Z"></path><path class="cls-1" d="m172.18,64.52v.23h-1.35v3.53h-.28v-3.53h-1.36v-.23h2.99Z"></path><path class="cls-1" d="m172.99,63.83s0,.06-.02.09c-.01.03-.03.05-.05.07s-.05.04-.08.05c-.03.01-.06.02-.09.02s-.06,0-.09-.02-.05-.03-.08-.05-.04-.05-.05-.07-.02-.06-.02-.09c0-.03,0-.06.02-.09.01-.03.03-.05.05-.07s.05-.04.08-.05.06-.02.09-.02.06,0,.09.02.05.03.08.05.04.05.05.07.02.06.02.09Zm-.1,4.45h-.28v-3.76h.28v3.76Z"></path><path class="cls-1" d="m176.11,64.52v.23h-2.02v1.58h1.75v.23h-1.75v1.73h-.28v-3.76h2.3Z"></path><path class="cls-1" d="m180.57,67.65s.03,0,.05.02l.11.11c-.08.08-.17.16-.26.23s-.2.12-.31.17-.23.08-.37.11-.28.04-.44.04c-.26,0-.51-.05-.73-.14-.22-.09-.41-.22-.57-.39s-.28-.37-.37-.61c-.09-.24-.13-.5-.13-.79s.05-.54.14-.78c.09-.23.22-.44.38-.61s.36-.3.59-.39.48-.14.75-.14.5.04.7.12c.2.08.39.19.55.34l-.08.12s-.04.03-.07.03c-.02,0-.06-.02-.11-.06s-.12-.08-.2-.13-.2-.09-.32-.13c-.13-.04-.29-.06-.47-.06-.23,0-.44.04-.64.12-.19.08-.36.19-.5.33s-.25.32-.32.53c-.08.21-.12.44-.12.7s.04.5.12.71.19.38.32.53.3.26.49.33c.19.08.39.11.61.11.14,0,.26,0,.37-.03.11-.02.21-.05.3-.08.09-.04.17-.08.25-.13s.16-.11.23-.18c0,0,.02-.01.03-.02,0,0,.02,0,.03,0h0Z"></path><path class="cls-1" d="m183.55,64.52v.23h-2.02v1.52h1.68v.22h-1.68v1.57h2.03v.23h-2.31v-3.76h2.3Z"></path><path class="cls-1" d="m184.46,66.58v1.7h-.28v-3.76h.98c.44,0,.77.08.99.25s.33.41.33.74c0,.14-.03.27-.08.39-.05.12-.13.22-.22.31-.1.09-.21.16-.35.22-.14.06-.29.1-.45.11.04.03.08.06.12.11l1.32,1.63h-.24s-.06,0-.08-.02-.04-.03-.06-.05l-1.23-1.52s-.03-.04-.05-.05-.03-.02-.05-.03-.04-.02-.07-.02-.06,0-.1,0h-.51Zm0-.2h.66c.17,0,.32-.02.46-.06.14-.04.25-.1.34-.17.09-.08.17-.16.21-.27s.07-.22.07-.35c0-.27-.09-.47-.27-.6-.18-.13-.44-.19-.78-.19h-.7v1.64h0Z"></path><path class="cls-1" d="m187.54,66.58v1.7h-.28v-3.76h.98c.44,0,.77.08.99.25s.33.41.33.74c0,.14-.03.27-.08.39-.05.12-.13.22-.22.31-.1.09-.21.16-.35.22-.14.06-.29.1-.45.11.04.03.08.06.12.11l1.32,1.63h-.24s-.06,0-.08-.02-.04-.03-.06-.05l-1.23-1.52s-.03-.04-.05-.05-.03-.02-.05-.03-.04-.02-.07-.02-.06,0-.1,0h-.51Zm0-.2h.66c.17,0,.32-.02.46-.06.14-.04.25-.1.34-.17.09-.08.17-.16.21-.27s.07-.22.07-.35c0-.27-.09-.47-.27-.6-.18-.13-.44-.19-.78-.19h-.7v1.64h0Z"></path><path class="cls-1" d="m193.26,68.28h-.21s-.05,0-.06-.02c-.02-.01-.03-.03-.04-.05l-.45-1.09h-1.89l-.45,1.09s-.02.04-.04.05-.04.02-.07.02h-.21l1.57-3.76h.27l1.57,3.76h0Zm-2.57-1.37h1.72l-.78-1.9c-.03-.06-.05-.14-.08-.22-.01.04-.02.08-.04.12-.01.04-.02.07-.04.1l-.78,1.9h0Z"></path><path class="cls-1" d="m196.65,68.28h-.28v-1.8h-2.41v1.8h-.28v-3.76h.28v1.75h2.41v-1.75h.28v3.76Z"></path><path class="cls-1" d="m197.94,63.83s0,.06-.02.09c-.01.03-.03.05-.05.07s-.05.04-.08.05c-.03.01-.06.02-.09.02s-.06,0-.09-.02-.05-.03-.08-.05-.04-.05-.05-.07-.02-.06-.02-.09c0-.03,0-.06.02-.09.01-.03.03-.05.05-.07s.05-.04.08-.05.06-.02.09-.02.06,0,.09.02.05.03.08.05.04.05.05.07.02.06.02.09Zm-.1,4.45h-.28v-3.76h.28v3.76Z"></path><path class="cls-1" d="m201.43,68.09c.18,0,.35-.03.5-.09.15-.06.27-.15.37-.26.1-.11.18-.24.23-.39s.08-.32.08-.49v-2.32h.28v2.32c0,.21-.03.4-.1.58-.07.18-.16.34-.29.47-.13.13-.28.24-.46.32-.18.08-.38.11-.61.11s-.43-.04-.61-.11c-.18-.08-.33-.18-.46-.32-.13-.14-.22-.29-.29-.47-.07-.18-.1-.37-.1-.58v-2.32h.28v2.32c0,.17.03.34.08.49s.13.28.23.39.22.2.37.26c.14.06.31.1.5.1h0Z"></path><path class="cls-1" d="m206.22,64.52v.09s-.01.07-.04.11l-2.44,3.33h2.46v.23h-2.83v-.1s0-.04,0-.05.02-.03.02-.05l2.44-3.34h-2.41v-.23h2.78,0Z"></path><path class="cls-1" d="m208.7,67.34s.02-.05.04-.08c.01-.03.03-.05.04-.08l1.51-2.61s.03-.04.05-.04c.02,0,.04,0,.06,0h.19v3.76h-.24v-3.27s0-.05,0-.08l-1.51,2.62s-.06.07-.11.07h-.04s-.08-.02-.11-.07l-1.55-2.63c0,.05,0,.1,0,.15v3.2h-.24v-3.76h.19s.05,0,.06,0,.03.02.04.04l1.55,2.61c.03.05.05.1.07.16h0Z"></path><path class="cls-1" d="m214.41,68.28h-.21s-.05,0-.06-.02c-.02-.01-.03-.03-.04-.05l-.45-1.09h-1.89l-.45,1.09s-.02.04-.04.05-.04.02-.07.02h-.21l1.57-3.76h.27l1.57,3.76h0Zm-2.57-1.37h1.72l-.78-1.9c-.03-.06-.05-.14-.08-.22-.01.04-.02.08-.04.12-.01.04-.02.07-.04.1l-.78,1.9h0Z"></path><path class="cls-1" d="m215.03,64.53s.03.02.05.04l2.49,3.26c0-.05,0-.11,0-.15v-3.15h.24v3.76h-.13s-.04,0-.06-.01-.03-.02-.05-.04l-2.5-3.26c0,.05,0,.1,0,.15v3.16h-.24v-3.76h.14s.05,0,.06,0h0Z"></path><path class="cls-1" d="m219,68.28h-.28v-3.76h.28v3.76Z"></path></g><g><g><path class="cls-1" d="m98.78,55.27c.11,0,.2.04.28.12l.77.83c-.55.63-1.22,1.12-2.01,1.47-.79.35-1.74.52-2.85.52-.98,0-1.86-.17-2.65-.5s-1.47-.79-2.03-1.39-.99-1.3-1.3-2.13c-.3-.83-.45-1.73-.45-2.73s.16-1.9.48-2.73.77-1.54,1.35-2.13,1.28-1.05,2.09-1.38,1.7-.5,2.68-.5,1.81.15,2.55.46,1.39.71,1.94,1.22l-.64.88c-.05.06-.1.11-.15.15-.06.04-.14.06-.25.06-.12,0-.26-.06-.42-.17s-.37-.25-.63-.39-.58-.27-.97-.39-.87-.17-1.44-.17c-.68,0-1.3.12-1.86.35-.57.23-1.05.57-1.46,1-.41.44-.72.97-.95,1.6-.23.63-.34,1.34-.34,2.14s.12,1.53.35,2.16.56,1.17.97,1.6c.41.44.89.77,1.45,1,.56.23,1.15.35,1.79.35.39,0,.75-.02,1.06-.07s.6-.11.87-.21c.26-.09.51-.21.75-.36.23-.15.46-.32.69-.52.05-.04.1-.08.15-.11.05-.03.11-.04.17-.04h0Z"></path><path class="cls-1" d="m109.84,44.89v1.54h-6.39v4.24h5.15v1.49h-5.15v4.36h6.4v1.54h-8.34v-13.18s8.33,0,8.33,0Z"></path><path class="cls-1" d="m113.35,44.94c.08.04.18.13.29.26l7.67,9.72c-.01-.17-.02-.33-.03-.5s-.02-.32-.02-.46v-9.09h1.7v13.18h-.98c-.15,0-.28-.03-.38-.08-.1-.05-.2-.14-.3-.26l-7.68-9.72c.01.16.02.32.03.47s.02.3.02.44v9.16h-1.7v-13.18h1c.17,0,.29.02.38.05h0Z"></path><path class="cls-1" d="m134.75,57.86c-.77.23-1.6.35-2.51.35-1.08,0-2.06-.17-2.94-.5s-1.62-.79-2.24-1.39-1.1-1.3-1.43-2.13c-.33-.83-.5-1.73-.5-2.73s.16-1.91.48-2.74c.32-.83.78-1.54,1.39-2.13.6-.59,1.33-1.05,2.18-1.38s1.8-.49,2.86-.49c.54,0,1.04.04,1.5.12.46.08.89.19,1.28.34.39.14.75.32,1.09.52s.64.44.93.69l-.54.86c-.09.14-.2.22-.34.25-.14.03-.29,0-.45-.1-.16-.09-.34-.2-.54-.32-.2-.12-.43-.23-.7-.34s-.59-.2-.96-.28c-.37-.08-.8-.11-1.31-.11-.75,0-1.42.12-2.02.36s-1.11.58-1.53,1.02-.75.97-.98,1.6-.34,1.33-.34,2.11c0,.82.12,1.55.36,2.19s.58,1.19,1.02,1.64.98.79,1.61,1.03c.63.23,1.33.35,2.11.35.3,0,.58-.02.85-.05.26-.03.52-.08.76-.15s.48-.14.7-.23.45-.19.68-.3v-2.82h-2.02c-.13,0-.23-.04-.3-.11-.08-.07-.12-.16-.12-.26v-1.07h4.2v5.11c-.68.48-1.41.83-2.17,1.07h-.02Z"></path><path class="cls-1" d="m141.46,42.56c0,.15-.03.3-.1.44s-.15.26-.26.37c-.11.11-.24.19-.38.25s-.3.09-.46.09-.3-.03-.44-.09c-.14-.06-.26-.14-.38-.25-.11-.11-.2-.23-.26-.37s-.09-.28-.09-.44.03-.31.09-.45.15-.27.26-.38c.11-.11.23-.19.38-.25s.29-.09.44-.09.32.03.46.09c.15.06.28.14.38.25s.2.23.26.38c.07.14.1.29.1.45Zm-.24,15.5h-1.94v-13.18h1.94v13.18Z"></path><path class="cls-1" d="m153.25,44.89v.7c0,.23-.07.44-.2.63l-7.51,10.31h7.59v1.54h-10.12v-.74c0-.11.02-.2.05-.29s.08-.17.14-.26l7.51-10.34h-7.33v-1.54h9.88,0Z"></path><path class="cls-1" d="m169.96,58.06h-1.5c-.17,0-.31-.04-.41-.12-.11-.08-.19-.19-.24-.32l-1.21-3.09h-5.98l-1.21,3.09c-.04.12-.11.22-.23.31-.12.09-.26.14-.42.14h-1.5l5.37-13.18h1.96l5.38,13.18h0Zm-8.82-4.9h4.91l-2.04-5.19c-.07-.17-.14-.36-.21-.57-.07-.22-.14-.45-.21-.71-.07.26-.14.5-.21.72-.07.22-.14.41-.21.58l-2.04,5.18h0Z"></path><path class="cls-1" d="m175.48,60.35s.08.01.13.03.11.05.18.07.15.05.24.07c.09.02.2.03.33.03.25,0,.44-.05.57-.15.13-.1.2-.22.2-.38,0-.23-.13-.38-.38-.47s-.63-.16-1.11-.23l.38-1.14c-.9-.06-1.71-.27-2.44-.62-.73-.35-1.34-.82-1.86-1.41-.51-.59-.9-1.28-1.18-2.07-.28-.8-.42-1.67-.42-2.62s.16-1.9.48-2.73.77-1.54,1.35-2.13,1.28-1.05,2.09-1.38,1.7-.5,2.68-.5,1.81.15,2.55.46,1.39.71,1.94,1.22l-.64.88c-.05.06-.1.11-.15.15-.06.04-.14.06-.25.06-.12,0-.26-.06-.42-.17-.16-.12-.37-.25-.63-.39s-.58-.27-.97-.39-.87-.17-1.44-.17c-.68,0-1.3.12-1.86.35-.57.23-1.05.57-1.46,1-.41.44-.72.97-.95,1.6-.23.63-.34,1.34-.34,2.14s.12,1.53.35,2.16.56,1.17.97,1.6c.41.44.89.77,1.45,1,.56.23,1.15.35,1.79.35.39,0,.75-.02,1.06-.07s.6-.11.87-.21c.26-.09.51-.21.75-.36.23-.15.46-.32.69-.52.05-.04.1-.08.15-.11.05-.03.11-.04.17-.04.11,0,.2.04.28.12l.77.83c-.51.58-1.12,1.04-1.83,1.39s-1.56.54-2.54.59l-.15.53c.58.12,1,.29,1.25.51.25.22.38.5.38.83,0,.2-.05.37-.15.53s-.24.29-.43.4c-.18.11-.4.2-.66.26-.25.06-.53.09-.84.09-.26,0-.5-.02-.73-.07-.23-.05-.44-.12-.64-.2l.17-.54c.04-.12.11-.17.23-.17h0Z"></path><path class="cls-1" d="m185.03,58.06h-1.94v-13.18h1.94v13.18Z"></path><path class="cls-1" d="m189.96,50.61h.67c.24,0,.43-.03.58-.09.15-.06.28-.16.4-.3l4.36-4.9c.13-.16.27-.27.41-.34s.32-.1.53-.1h1.64l-5.03,5.63c-.24.29-.49.5-.74.63.34.12.63.35.89.7l5.24,6.23h-1.68c-.25,0-.44-.04-.55-.11-.12-.07-.22-.17-.31-.29l-4.51-5.17c-.13-.15-.26-.26-.41-.33s-.37-.1-.66-.1h-.82v6h-1.93v-13.18h1.93s0,5.72,0,5.72Z"></path><path class="cls-1" d="m208.5,44.89v1.54h-6.39v4.24h5.15v1.49h-5.15v4.36h6.4v1.54h-8.34v-13.18h8.33Z"></path><path class="cls-1" d="m212.55,56.47h5.75v1.6h-7.69v-13.18h1.93v11.58h0Z"></path></g><g><path class="cls-1" d="m89.81,39.47v1.48h-.27v-3.66h.97c.44,0,.77.09.99.28.22.19.33.46.33.81,0,.16-.03.31-.09.44-.06.14-.15.25-.26.35-.11.1-.25.17-.42.23s-.35.08-.55.08h-.69,0Zm0-.21h.69c.17,0,.31-.02.44-.07.13-.05.24-.11.33-.19s.16-.17.21-.28c.05-.11.07-.23.07-.35,0-.28-.09-.5-.26-.65s-.44-.23-.79-.23h-.69v1.76h0Z"></path><path class="cls-1" d="m92.76,39.29v1.66h-.27v-3.66h.96c.43,0,.75.08.97.24.21.16.32.4.32.72,0,.14-.02.27-.08.38s-.12.22-.21.3c-.09.09-.2.16-.34.21-.13.06-.28.09-.44.11.04.03.08.06.11.1l1.29,1.58h-.23s-.05,0-.08-.02-.04-.03-.06-.05l-1.2-1.49s-.03-.04-.04-.05-.03-.02-.05-.03-.04-.01-.07-.02c-.02,0-.06,0-.09,0h-.49Zm0-.2h.65c.17,0,.32-.02.44-.06.13-.04.24-.09.33-.17.09-.07.16-.16.21-.26s.07-.22.07-.34c0-.26-.09-.45-.26-.58s-.43-.19-.76-.19h-.69v1.6h0Z"></path><path class="cls-1" d="m98.89,39.11c0,.28-.04.54-.13.77s-.21.43-.36.59-.35.29-.57.38c-.22.09-.46.13-.73.13s-.51-.05-.72-.13c-.22-.09-.41-.21-.57-.38s-.28-.36-.36-.59-.13-.49-.13-.77.04-.54.13-.77c.09-.23.21-.43.36-.59s.35-.29.57-.38c.22-.09.46-.14.72-.14s.51.05.73.13c.22.09.41.22.57.38.16.16.28.36.36.59.09.23.13.49.13.77Zm-.28,0c0-.26-.04-.48-.11-.69s-.17-.38-.31-.52-.29-.25-.48-.32c-.19-.08-.39-.11-.61-.11s-.43.04-.61.11c-.19.08-.35.18-.48.32s-.24.31-.31.52-.11.43-.11.69.04.49.11.69c.07.2.18.38.31.52s.29.25.48.32.39.11.61.11.43-.04.61-.11c.19-.08.34-.18.48-.32s.23-.31.31-.52c.07-.2.11-.43.11-.69Z"></path><path class="cls-1" d="m101.89,37.28v.22h-1.97v1.54h1.71v.22h-1.71v1.68h-.27v-3.66h2.25Z"></path><path class="cls-1" d="m101.78,40.74s0-.06.02-.09.03-.05.05-.08c.02-.02.05-.04.08-.05s.06-.02.1-.02.07,0,.1.02.06.03.08.05c.02.02.04.05.05.08.01.03.02.06.02.09,0,.04,0,.07-.02.09-.01.03-.03.05-.05.08-.02.02-.05.04-.08.05-.03.01-.06.02-.1.02-.07,0-.13-.02-.17-.07-.05-.05-.07-.1-.07-.17h0Z"></path><path class="cls-1" d="m106.57,39.11c0,.28-.04.54-.13.76s-.21.42-.36.58-.35.28-.57.36-.46.13-.73.13h-1.37v-3.66h1.37c.26,0,.51.04.73.13s.41.21.57.36c.16.16.28.35.36.58s.13.48.13.76h0Zm-.28,0c0-.26-.04-.48-.11-.68-.07-.2-.17-.37-.31-.51s-.29-.24-.48-.32-.39-.11-.61-.11h-1.09v3.23h1.09c.23,0,.43-.04.61-.11s.34-.18.48-.32.23-.31.31-.51.11-.43.11-.69Z"></path><path class="cls-1" d="m107.6,39.29v1.66h-.27v-3.66h.96c.43,0,.75.08.97.24.21.16.32.4.32.72,0,.14-.02.27-.08.38s-.12.22-.21.3c-.09.09-.2.16-.34.21-.13.06-.28.09-.44.11.04.03.08.06.11.1l1.29,1.58h-.23s-.05,0-.08-.02-.04-.03-.06-.05l-1.2-1.49s-.03-.04-.04-.05-.03-.02-.05-.03-.04-.01-.07-.02c-.02,0-.06,0-.09,0h-.49Zm0-.2h.65c.17,0,.32-.02.44-.06.13-.04.24-.09.33-.17.09-.07.16-.16.21-.26s.07-.22.07-.34c0-.26-.09-.45-.26-.58s-.43-.19-.76-.19h-.69v1.6h0Z"></path><path class="cls-1" d="m110.26,40.74s0-.06.02-.09.03-.05.05-.08c.02-.02.05-.04.08-.05s.06-.02.1-.02.07,0,.1.02.06.03.08.05c.02.02.04.05.05.08.01.03.02.06.02.09,0,.04,0,.07-.02.09-.01.03-.03.05-.05.08-.02.02-.05.04-.08.05-.03.01-.06.02-.1.02-.07,0-.13-.02-.17-.07-.05-.05-.07-.1-.07-.17h0Z"></path></g></g></g><g><path class="cls-1" d="m81.72,78.68c-1.56,0-3.13,0-4.69,0-.3,0-.72.14-.8-.38-.07-.44.15-.62.56-.76.65-.22.92-.93.66-1.58-.99-2.4-1.99-4.79-2.99-7.19-.15-.36-.34-.72-.45-1.09-.11-.35-.3-.36-.6-.26-2.84.99-5.75.81-8.65.41-2.7-.37-5.2-1.33-7.5-2.8-.39-.25-.6-.25-.79.23-1.37,3.34-2.77,6.67-4.15,10.01-.14.32-.23.69-.25,1.03-.04.79.4,1.29,1.19,1.35.4.03.63.11.61.58-.02.51-.36.45-.67.45-2.13,0-4.26,0-6.38,0-.31,0-.6,0-.61-.45,0-.41.14-.56.55-.58,1.91-.11,2.77-1.4,3.41-3,1.27-3.16,2.59-6.29,3.89-9.44,1.38-3.34,2.75-6.68,4.12-10.02,1.23-2.97,2.46-5.94,3.69-8.92,1.16-2.8,2.32-5.6,3.47-8.39.11-.28.26-.55.34-.83.17-.59.49-.84,1.14-.81.51.02.68.28.84.66,1.98,4.68,3.97,9.35,5.96,14.02,1.9,4.48,3.79,8.97,5.7,13.45,1.14,2.68,2.29,5.36,3.44,8.04.46,1.08.92,2.17,1.38,3.25.47,1.11,1.29,1.76,2.49,1.96.2.03.49.22.55.39.15.47-.1.67-.59.66-1.62-.02-3.24,0-4.86,0h0Zm-16.9-33.4c-.13.25-.22.39-.28.54-.59,1.38-1.17,2.77-1.75,4.16-1.31,3.14-2.61,6.28-3.92,9.43-.17.41-.19.75.11,1.15,3.22,4.3,7.47,6.2,12.82,5.54.47-.06.94-.18,1.49-.28-2.84-6.88-5.62-13.64-8.46-20.53h0Z"></path><path class="cls-1" d="m53.91,62.29c-.18-.15-.35-.26-.49-.4-2.32-2.28-3.84-5.05-4.91-8.08-.81-2.3-1.28-4.68-1.31-7.13-.06-5.41,1.52-10.23,5.16-14.3,3.47-3.87,7.9-5.83,12.98-6.51,2.99-.4,5.97-.33,8.9.48,1.85.51,3.51,1.42,5.08,2.5.24.17.29.34.12.61-.66,1.11-.65,1.11-1.72.42-3.56-2.3-7.42-3.07-11.55-2.1-4.16.98-7.24,3.43-9.32,7.17-1.18,2.12-2.12,4.32-2.48,6.73-.22,1.47-.45,2.94-.5,4.42-.1,2.98.7,5.8,1.78,8.55.05.12.09.26.16.36.66.97.5,1.89.02,2.9-.63,1.32-1.14,2.7-1.71,4.05-.04.1-.12.18-.23.32h0Z"></path></g></g></g></g></svg>