<svg xmlns="http://www.w3.org/2000/svg" id="katman_1" data-name="katman 1" viewBox="0 0 256 108"><defs><style> .cls-1 { fill: #1d1d1b; stroke-width: 0px; } </style></defs><g><path class="cls-1" d="m144.13,50.57l13.44-13.9h-15.14l-11.92,13.91v-13.91h-11.14c-1.75-.41-3.88-.63-6.43-.63-3.45,0-6.15.43-8.1,1.29-1.95.86-3.46,2.11-4.53,3.72-1.07,1.62-1.81,3.87-2.21,6.75l10.25.83c.28-2.08.84-3.53,1.67-4.35.83-.82,1.9-1.23,3.2-1.23s2.3.4,3.13,1.19c.83.8,1.24,1.76,1.24,2.88,0,1.04-.42,2.13-1.26,3.29-.84,1.16-2.76,2.84-5.75,5.08-4.91,3.63-8.25,6.79-10.04,9.46-1.78,2.67-2.85,5.52-3.2,8.55h33.16v-8.99l5.88-6.16,7.76,15.14h14.02l-14.04-22.92h0Zm-32.06,14.59c.94-.92,1.75-1.67,2.45-2.24.69-.57,2.07-1.56,4.13-2.99.17-.12.32-.24.48-.35v5.58h-7.07Z"></path><polygon class="cls-1" points="108.7 22.09 81 22.09 81 49.89 89.05 49.89 89.05 30.25 108.7 30.25 108.7 22.09"></polygon><polygon class="cls-1" points="164.77 58.11 164.77 77.74 145.12 77.74 145.12 85.91 172.82 85.91 172.82 58.11 164.77 58.11"></polygon></g><g><path class="cls-1" d="m99.65,85.51v-5.81h1.63l.8,3.76.8-3.76h1.63v5.81h-1.03l.02-5.16-1.08,5.16h-.66l-1.08-5.16.03,5.16h-1.04Z"></path><path class="cls-1" d="m105.49,79.69h1.08v3.92c0,.45.05.75.16.91.11.16.3.24.58.24s.47-.08.58-.24.16-.47.16-.92v-3.9h1.07v4.01c0,.39-.02.68-.07.86-.04.18-.12.34-.22.47-.16.2-.36.36-.62.46-.26.1-.56.15-.91.15-.66,0-1.13-.14-1.41-.43s-.41-.79-.41-1.51v-4.01h0Zm.76-.57v-.9h.83v.9h-.83Zm1.29,0v-.9h.83v.9h-.83Z"></path><path class="cls-1" d="m110.11,85.51v-5.81h1.08v2.28h1.48v-2.28h1.08v5.81h-1.08v-2.63h-1.48v2.63h-1.08Z"></path><path class="cls-1" d="m114.73,85.51v-5.81h2.99v.97h-1.91v1.34h1.78v.92h-1.78v1.6h1.96v.98h-3.03Z"></path><path class="cls-1" d="m118.56,85.51v-5.81h1.11l1.51,4.07-.03-4.07h1.02v5.81h-1.11l-1.52-4.07.03,4.07h-1.02Z"></path><path class="cls-1" d="m123.17,85.51v-5.81h1.74c.35,0,.64.03.85.09.21.06.38.16.52.29.2.2.35.45.43.75.08.3.13.77.13,1.41,0,.82-.03,1.41-.09,1.75-.06.34-.16.63-.29.87-.13.24-.32.41-.56.5s-.65.14-1.24.14h-1.49Zm1.06-.86h.48c.24,0,.42-.02.51-.05.1-.04.18-.1.23-.18.1-.15.17-.36.22-.62s.06-.68.06-1.26-.03-.97-.08-1.23c-.05-.26-.14-.45-.26-.58-.06-.07-.14-.11-.24-.14-.1-.03-.25-.04-.47-.04h-.46v4.11h0Z"></path><path class="cls-1" d="m127.71,85.51v-5.81h1.08v5.81h-1.08Zm.14-6.4v-.87h.8v.87h-.8Z"></path><path class="cls-1" d="m129.68,83.47h1.08v.37c0,.36.04.6.13.73.09.13.24.19.46.19s.4-.06.52-.17c.12-.12.18-.29.18-.51,0-.17-.04-.32-.12-.45s-.26-.28-.54-.48l-.56-.39c-.48-.33-.78-.61-.91-.82-.13-.22-.19-.49-.19-.82,0-.49.14-.87.43-1.15s.69-.42,1.2-.42c.54,0,.95.15,1.24.44.29.29.43.72.43,1.27,0,.06,0,.1,0,.13s0,.06,0,.08h-1.03v-.15c0-.31-.05-.54-.15-.68-.1-.14-.27-.2-.51-.2-.17,0-.31.05-.41.15-.1.1-.15.24-.15.42,0,.24.22.51.67.81,0,0,0,0,.01,0l.6.4c.43.28.71.55.86.8s.23.57.23.96c0,.53-.15.94-.45,1.22s-.73.43-1.29.43-1.02-.15-1.3-.45c-.29-.3-.43-.76-.43-1.38,0-.07,0-.17.02-.32v-.02h0Z"></path><path class="cls-1" d="m134.02,85.51v-5.81h1.08v4.82h1.96v.99h-3.04Z"></path><path class="cls-1" d="m137.79,85.51v-5.81h1.08v5.81h-1.08Zm.14-6.4v-.87h.8v.87h-.8Z"></path><path class="cls-1" d="m139.86,85.51v-5.81h1.06v2.43l1.32-2.43h1.2l-1.47,2.41,1.56,3.4h-1.19l-1.05-2.4-.38.64v1.76h-1.06,0Z"></path></g></svg>